<?xml version="1.0" encoding="utf-8"?>
<!-- Generator: Adobe Illustrator 21.1.0, SVG Export Plug-In . SVG Version: 6.00 Build 0)  -->
<svg version="1.1" id="Слой_1" xmlns="http://www.w3.org/2000/svg" xmlns:xlink="http://www.w3.org/1999/xlink" x="0px" y="0px"
	 viewBox="0 0 2000 2000" style="enable-background:new 0 0 2000 2000;" xml:space="preserve">
<style type="text/css">
	.st0{fill:none;}
	.st1{fill:#C9C9C9;}
	.st2{fill-rule:evenodd;clip-rule:evenodd;fill:#FFFFFF;}
	.st3{fill:#B7B7B7;}
	.st4{fill:#737373;}
	.st5{fill:#C7C7C7;}
	.st6{fill:#F4F4F4;}
	.st7{fill-rule:evenodd;clip-rule:evenodd;}
	.st8{opacity:0.13;fill-rule:evenodd;clip-rule:evenodd;fill:url(#Новый_образец_узора_2);}
</style>
<pattern  x="-441.8" y="-452.9" width="741.9" height="739.6" patternUnits="userSpaceOnUse" id="Новый_образец_узора_2" viewBox="0 -739.6 741.9 739.6" style="overflow:visible;">
	<g>
		<rect x="0" y="-739.6" class="st0" width="741.9" height="739.6"/>
		<path class="st1" d="M434.7-664.5c4.3,4.2,9.2,8,15.3,9.1c5.8,1.1,12.1,1.9,18,2.4c6.6,0.6,14,1.7,20.5-0.2
			c5.3-1.6,12-5.1,16.1-8.8c4.7-4.2,7.2-10.8,2.3-16c-4.2-4.4-11.6-3.2-17.1-3.2c-7.1,0-14.5-0.8-21.6-0.1c-3.5,0.4-6.1,2-9.4,2.8
			c-3.1,0.8-6.4,0.6-9.5,0.6c-9.5,0-9.6,14.8,0,14.8c4.5,0,9.1,0.1,13.5-1.1c4-1.1,6.7-2.5,11-2.5c4.4,0.1,8.8,0.2,13.2,0.2
			c2.5,0,5.1,0,7.6,0c1,0,2,0,2.9,0c2.2,0.2,1.6-0.4-1.8-1.6c-0.3-1.2-0.7-2.5-1-3.7c0,0.4,0,0.8,0,1.2c0.3-1.2,0.7-2.5,1-3.7
			c-1.6,3-7.1,4.9-10,6.2c-4.8,2.2-10.5,0.7-15.5,0.3c-4.8-0.3-9.5-1.3-14.3-1.8c-4.8-0.6-7.4-2-10.9-5.4
			C438.4-681.6,427.9-671.1,434.7-664.5L434.7-664.5z"/>
		<rect x="1.2" y="-739.6" class="st2" width="739.6" height="739.6"/>
		<g>
			<path class="st3" d="M187.2-490.9C187.4-491,187.4-491.1,187.2-490.9L187.2-490.9z"/>
			<path class="st3" d="M351.9-621c-0.4-2.5,0.1-7.1,0.1-10.4c0-4-0.5-7.7-0.6-10.7c0-1.3-0.1-2.8-0.5-4c-0.2-0.8-0.3-1.1-0.4-1.2
				c-0.1-1,0.1-2-0.3-3.3c-0.2-0.9-0.6-1.7-0.9-2.5c0.3,0.2,0-2.7,0-3.6c-0.1-1.9-0.4-3.9-1-5.7c-1.7-5.1-5.4-9.1-10.7-10.6
				c-1.2-0.3-3-0.4-4.3-0.5c-0.1,0-1.6,0-1.3,0.1c-2.4-0.2-4.8-0.7-7.3-0.7c-4.5,0-8.2-0.3-12.6-1c-2.9-0.5-5.9-0.5-8.7-0.9
				c0.4,0,1.5,0.1,0.1-0.1c-1.5-0.2-3-0.5-4.5-0.6c-4.6-0.1-9.2,0-13.8,0c-13.6,0-15.3,18.4-5.2,23.1c-5.4,4.7-6.9,12.3-8.3,19.3
				c-1.8,8.6-2.3,17.4-4.1,26c-1.8,8.3-0.5,16.8-1.9,25.2c-0.6,3.7-0.6,7.7-1.2,10.8c-0.7,4.1-1.9,8.2-3,12.2
				c-0.9,3.6-1,7.5-2.2,11.1c-1.6,4.9-3.4,8.4-3.6,13.8c0,0.2,0,1,0,1.5c-0.1,0.2-0.1,0.4-0.2,0.5c-1.1,2.1-2.1,4.2-3.1,6.3
				c-0.3,0.5-1,1.6-1.1,2.2c-1.2,0.6-2.4,1.3-3.6,1.9c-7.1,3.8-14.4,6.7-21.4,10.7c-1.7,1-3.4,1.7-5.2,2.6c-0.4,0.2-4.2,2.2-2.5,1.4
				c-3.6,1.7-6.6,3.8-9.9,5c-4.5,1.7-8.1,3.8-12.1,6.3c-1.8,1.1-3.6,2.1-5.2,3.3c-0.5,0.4-1.1,0.9-1.6,1.4c0-0.1-1.3,0.7-1.5,0.8
				c-1.7,1-3.7,4-1.8,1.3c0.3-0.4,0.5-0.7,0.7-0.8c-0.2,0.1-0.5,0.2-0.9,0.3c-2.6,0.4-5.2,2.8-7,4.5c-3.3,3.1-5.7,6.8-7.1,11.1
				c-2.6,8.2-2.3,18.8,5.1,24.4c1.3,1,2.3,1.3,3.7,2.1c5,2.6,1.1,0.6,1.1,0.6c1.6,1,3,2.3,4.5,3.3c2.9,1.9,6.3,3.6,9.5,5.3
				c8.3,4.4,16.8,7.7,26.3,7.5c8.4-0.2,16.7-0.3,25-0.7c5-0.2,9.1-1.5,13.7-3.5c3.7-1.6,6.7-2.4,10.7-3.3c4.5-1.1,8.7-3.6,12.8-5.6
				c4-1.9,7.7-4,11.3-6.6c6.8-4.9,13.7-9.2,19.9-14.9c3-2.7,5.6-6.3,7.9-9.5c1.1-1.5,2.2-2.9,3.3-4.4c1.6-2.3,2.3-4.7,3.5-7.2
				c3.9-7.6,8.3-14.5,9.7-23.2c1.5-8.6,1.2-16.9,1.5-25.5c0.1-2.2,0.5-4.2,0.8-6.5c0.1-0.7,0.1-1.5,0.2-2.2c0.4-2.3-0.1,1.2,0.2-0.4
				c0.9-4.4,1.7-8.1,2.1-12.9c0.4-4.1,1.5-8.2,2.1-12.3c0.5-3.9,0.9-7.5,1.8-11.3c2-8.5,4.2-17,4.3-25.7
				C353.4-612.2,352.6-616.3,351.9-621z M285.8-492.6c-1.9,1.3-3.8,2.5-5.5,4c-1.5,1.2-2.8,2.1-4.3,2.9c2-2.2,3.9-4.6,5.5-7.4
				c1.5-2.6,3.8-5.4,5.4-8.4c1.7-3.1,3.1-7.1,4.4-9.7c2.6-5.5,4.8-11.1,6.7-16.8c-0.9,3.8-1.8,7.5-2.6,11.3
				c-1.5,7-2.2,10.8-4.9,17.5c-0.5,1.3-2.4,4.4-3.2,5.5C287.6-494.1,286-492.8,285.8-492.6z M332.2-649.4
				C332.2-649.4,332.2-649.4,332.2-649.4C333.7-649.4,333.8-649.4,332.2-649.4z M325.2-656.2C324.9-656.6,325.1-656.6,325.2-656.2
				L325.2-656.2z M325.4-650.1c0.1,0.7,0.2,1.4,0.4,2.2c-1-0.8-2-1.5-3.1-2c-0.1,0-0.2-0.1-0.2-0.1c0.2,0,0.3,0,0.5,0
				C323.8-650.1,324.6-650.1,325.4-650.1z M248.3-496.2c2.9-1.7,5.9-3.1,9-4.5c-2.9,2.7-6.5,4.5-10.4,5.5c-0.2,0.1-0.4,0.1-0.6,0.2
				C246.9-495.4,247.6-495.8,248.3-496.2z M190.2-470.7C190.2-470.7,190.2-470.7,190.2-470.7C190.2-470.7,190.2-470.7,190.2-470.7z"
				/>
		</g>
		<g>
			<path class="st4" d="M71-139.3c0.1-0.2,0.1-0.3,0.2-0.5C71.1-139.5,71-139.3,71-139.3z"/>
			<path class="st4" d="M134.5-303.2c-0.1,0.1-0.3,0.1-0.6,0.2C134.1-303.1,134.3-303.1,134.5-303.2z"/>
			<path class="st4" d="M183.7-179.3c-1.4-8.9-3.6-19.1-5.2-28.7c-1.8-10.8-2.3-21.2-2.4-32.2c0-5.4,0.4-10.8-0.8-16.1
				c-0.1-0.3-0.1-0.5-0.2-0.7c0-0.1,0-0.2,0-0.4c-0.1-1.2,0-2.4,0-3.7c0-3.7,0-7.3,0-11c0-5.7,0-11.4,0-17.1
				c0-6.5,0.3-12.9-5.4-17.3c-5.6-4.3-12.1-3.4-18.4-1.5c-4.9,1.4-9.8,2.3-14.7,3.9c-0.7,0.2-1.4,0.5-2.1,0.8
				c1.5-0.6-2.8,1.3-4.2,1.9c-0.5,0.1-1.1,0.3-1.1,0.4c-2.2,0.8-3.7,1.7-5.5,3.2c-2.5,2.2-4.9,4.8-6.5,7.8c-0.2-15.9-25-15.9-25,0.2
				c0,1.9,0.1,3.8,0.6,5.6c0.1,0.2,0.7,2.2,0.6,1.6c0.6,2.6,0.5,4.2,1,7.3c0.4,2.8,0.4,2.4,0.4,5.3c0,3.1,0,6.1,0,9.2
				c0,5.6,0,11.2,0,16.9c0,2.6,0,5.3,0,7.9c0-0.8-0.2,2.4-0.1,3.2c-0.2,0.7-0.6,2.3-0.6,2.7c-0.5,2.5-0.9,5-0.8,6.7
				c0,0.3,0,1.5,0.1,1.3c-0.4,1.4-1.4,2.8-1.9,4.2c-1.5,4.8-2.4,10.4-2.9,14c-1.4,10.9-3.2,20-5.3,28.4c-2.4,9.3-2.8,17.8-7.1,26.4
				c-1.4,2.9-2.9,5.7-4.4,8.5c-0.1,0.1-0.6,1.1-0.6,1.1c-0.6,1.3-1.2,2.5-1.8,3.8c0-0.1,0-0.1-0.4,0.5c-0.6,1-1.1,2.1-1.7,3.1
				c-1.4,2.3-3.3,4.3-4.9,6.6c-5.9,8.2-17.3,17.9-10.2,30.1c2.3,3.9,6.1,6.6,8.2,10.7c2.2,4.4,2.3,9.6,3.2,14.3
				c0.2,0.9,0.4,1.9,0.6,2.8c0,0.4,0.2,1.5,0.2,1.8c0.4,3.4,1,6.3,2.8,9.2c4.5,7.4,13.9,8.9,21.3,5.4c1.4-0.7,2.8-1.4,4-2.4
				c0.2-0.2,0.4-0.3,0.5-0.4c0.1,0,0.2,0,0.4,0c1.5-0.1,3.1-0.6,4.6-0.8c4.3-0.7,8.5-1.9,12.8-2.2c-0.5,0,8.2-2.1,5.8-1.5
				c-1.4,0.4-3.2,0.8,2.4-0.2c2.6-0.4,5.1-1.2,7.4-2.5c4.8-2.6,9.6-6.2,12.2-11.1c2.8-5.3,4.1-12.3,2.8-18.1
				c-0.7-2.9-1.9-6.2-4.1-8.4c0,0-0.1-0.1-0.1-0.1c-0.6-1.3-1.8-3.6-2-4.1c-0.7-1.6-1.5-3.2-1.8-5c-0.5-2.5-0.9-5.1-1.5-7.6
				c-0.5-2.6-0.5-1.6-0.5-4.5c0-0.5,0-3.1,0-5.1c0.3-0.1,0.5-0.3,0.8-0.5c-0.1,0.1-0.5,0.2-0.8,0.3c0,0,0,0,0-0.1
				c0.3-0.1,0.8-0.2,1.5-0.4c1.1-0.3,2.3-0.6,3.4-1c6-1.7,11.9-4,17.9-5.4c2.2-0.5,4.4-0.6,6.6-1.1c3.9-0.9,5.7-2.1,8.2-3.3
				c4.4-2.1,8.5-5.1,11.5-9c3.6-4.8,4.1-10.2,4.1-16C184.2-167.3,184.6-173.4,183.7-179.3z M113.6-82.8c-0.8,0.2-1.7,0.2-2.6,0.3
				c1.3-1.5,2.4-3.2,3.1-5.2c0.5,0.9,1,1.8,1.6,2.6c0,0.1,0.2,0.3,0.4,0.5c-0.2,0.2-0.3,0.4-0.4,0.6
				C114.5-83.3,113.3-82.7,113.6-82.8z M87.3-78c-0.1-0.5-0.2-1-0.2-1.5c0.9,0.4,1.7,0.8,2.7,1C88.9-78.4,88.1-78.2,87.3-78z
				 M140.9-176.9C141.1-177.2,141.1-177.1,140.9-176.9L140.9-176.9z M140.6-195c0,3.4,0.3,6.8,0.2,10.2c0,2.7-1,6.6-1,8.5
				c-0.7,0.3-1.5,0.7-2.2,1.1c0.3-2.3,0.7-5,1-7.6c0.5-4.9,1.1-11.4,1.8-15.3c0.1-0.3,0.1-0.6,0.1-0.9
				C140.6-197.7,140.6-196.3,140.6-195z M100.3-102.1c-0.1,0-0.2,0-0.3,0c0.1,0,0.2-0.1,0.3-0.1C102-101.8,102-101.8,100.3-102.1z
				 M118.2-284.7C118.2-284.7,118.2-284.7,118.2-284.7C118.1-285.3,118.1-285.5,118.2-284.7z M73.8-99.9
				C73.8-99.9,73.8-99.9,73.8-99.9C73.7-99.9,73.7-99.9,73.8-99.9z M99.8-77.2c-0.1,0-0.2,0-0.5,0C99.5-77.2,99.7-77.2,99.8-77.2z
				 M118.4-81.8c0.1,0.1,0.1,0.1,0.1,0.2C118.5-81.7,118.5-81.8,118.4-81.8z M157.6-158.5c0.6-0.6,1.2-1.2,1.7-1.9
				c0,0.3,0,0.6,0,0.8c-0.2,0.1-0.5,0.3-0.8,0.5C158.2-158.9,157.9-158.7,157.6-158.5z"/>
		</g>
		<path class="st5" d="M2.9-664c4.6,3.8,8.4,4.9,14.2,5.6c3.3,0.4,6.4,1.3,9.8,1.4c2.3,0.1,4.6-0.3,6.9-0.1c5.5,0.5,10.9,2,16.5,2.1
			c3,0,5.9-0.4,8.9-0.8c1.1-0.2,2.3-0.5,3.4-0.6c3.1-0.3,2.5,1.4-0.7-0.9c-1.2-1.2-2.4-2.4-3.6-3.6c-1.2-1.7-0.2,2.4-0.6,2.2
			c-0.6-0.4,3.3-1.3,1.8-2.3c-0.6-0.4-3.7,0-4.2,0c-2.3,0-4.8,0.4-7,0.1c-2.3-0.2-4.7-0.9-7.1-0.9c-2.7-0.1-5.4,0.1-8,0.6
			c-2.6,0.5-4.7,1.4-6.5,1.3c-5.1-0.1-8.8-2.7-13.9-3.2c-5.4-0.5-10,5-10,10c0,5.8,4.6,9.5,10,10c0.4,0,0.8,0.1,1.2,0.1
			c-1.7-0.5-3.4-0.9-5-1.4c5.7,2.9,11.8,4.3,18.1,4.5c3.5,0.1,6.6-1.3,10-1.9c2.2-0.4,4.1-0.1,5.8,0.1c13.2,1.6,31.7,2.6,34.7-14
			c1.2-6.8,1.2-14.8-5.4-19c-5.5-3.5-12.2-1.2-18.1-0.5c-7,0.7-13.6-1.8-20.5-1.9c-3-0.1-6,0.3-9-0.2c-1.7-0.3-3.3-0.8-5-1
			c-1-0.2-2-0.3-2.9-0.2c1,0.3,1.2,0.4,0.7,0.3c-4.1-3.5-10.1-4.1-14.1,0C-0.7-674.6-1.3-667.4,2.9-664L2.9-664z"/>
		<path class="st5" d="M48.7-534.5c-0.1-5.7-2.3-10.3-6.4-14.3c-7.9-7.6-18.1-7.6-28.4-7.5c-9.3,0.1-11.9,10.5-7.8,16.3
			C6-539.4,6-538.6,6-537.7c0,4.6,2,10.2,4.7,13.9c2.8,3.9,7.5,5.9,11.9,7.3c8.7,2.8,20.5,4.4,25-5.8
			C49.2-526.1,48.8-530.6,48.7-534.5z M33.1-534.2C33.5-534.3,33.6-534.1,33.1-534.2L33.1-534.2z"/>
		<path class="st5" d="M161.6-512c-0.7-4.2-0.9-7.6-2.9-11.4c-1.8-3.4-4.4-6.9-7.2-9.6c-1.8-1.7-3.9-3.1-6.1-4
			c-0.3-0.6-0.6-1.2-0.9-1.8c-5.6-10.7-21.1-2.5-18.1,8c-0.3,0.5-0.6,1-1,1.4c-1.2,1.5-2.8,2.8-4.2,4.3c-2.7,2.9-4.7,6.1-6.3,9.7
			c-3.5,7.8-4.5,18.1-2,26.4c3,9.6,15.5,8.5,18.9,1.5c0.4,0.3,0.7,0.5,1.1,0.7c4.4,2.6,8.3,1.2,12.8-0.3c2.7-0.9,6.3-1,9.3-2.6
			C164-494.3,163.1-503.7,161.6-512z"/>
		<path class="st1" d="M14.3-622.5c1.9-2.4,4.5-5.9,7.9-5.7c3.9,0.3,4.5,4.7,7.6,6.8c4,2.7,9.5,2.9,13-0.7c1.4-1.4,2.2-3.2,2.8-5.1
			c0-0.1,1.2-4,1.3-3.7c-0.2-0.6-2.6-0.7-2.7-0.2c-0.1,0.7,0.9,2.3,1.2,2.9c0.8,1.6,1.7,3.2,3,4.5c2.9,3,7.2,4.4,11.3,4.2
			c8.1-0.3,16.5-7.1,17.3-15.2c0.9-9.5-13.9-9.4-14.8,0c0,0.3-0.1,0.7-0.1,1c0.3-1.2,0.7-2.5,1-3.7c-0.7,1.5-3.5,3.4-4.3,3
			c-0.9-0.5-1.5-3.6-2-4.5c-1.2-2.1-3-3.9-5.1-5c-4.7-2.5-10.1-1.4-14.2,1.8c-1.9,1.5-3.6,3.5-4.7,5.7c-0.4,0.8-0.8,1.7-1,2.6
			c-0.1,0.6-0.2,1.1-0.3,1.7c-0.4,1.6,0.4,1.1,2.4-1.5c1.3,0,2.6,0,3.9,0c1.2,0.3-1.8-3.4-2.1-3.8c-1-1-2.4-1.9-3.6-2.6
			c-3.1-1.7-6.9-2.9-10.4-2.9c-7.4,0-13.5,4.6-18,10.1c-2.5,3.1-3,7.4,0,10.5C6.4-619.8,11.8-619.4,14.3-622.5L14.3-622.5z"/>
		<path class="st1" d="M6.3-558.4c4.4,4.1,10.2,6.7,16,3.8c1.1-0.6,3.8-2.8,5-2.8c2.1,0.1,5.8,3.2,7.8,4c6.6,2.7,13,3.2,20,3.2
			c2.7,0,5.3-0.1,7.8-1.3c2.2-1.1,3.6-3.5,5.7-4.6c1.4-0.7,3.2,0.1,4.6-0.4c0.3-0.1,0.7,0,0.9,0.2c-0.9-2.6-1.6-3.2-2.3-1.7
			c-0.6,0.3-1.6,2.2-2.1,2.8c-3.9,5.1-7.1,10.8-10.2,16.3c-2.6,4.6-7.3,6.5-10.2,10.9c-2.8,4.2-5.5,10.2-5.3,15.3
			c0.3,9.6,15.3,9.7,15,0c-0.1-4.7,3.9-7.9,7.1-10.5c4.6-3.8,7.7-9.8,10.6-14.9c1.5-2.7,2.9-5.3,4.7-7.8c2-2.6,4.1-5,5.1-8.2
			c2-6.6-1.2-14.2-7.9-16.4c-4.8-1.6-11.5-1.4-16.1,0.8c-2.7,1.3-4.2,3.3-6.5,5c1.7-1.2,0.7-0.4-0.9-0.3c-1.8,0-3.6,0.1-5.4,0
			c-3.4-0.1-6.7-0.9-9.8-2.3c-2.8-1.3-5.2-3.2-8.1-4.1c-6.8-2-11.9,1.5-17.7,4.3c1.3-0.3,2.5-0.7,3.8-1c0.5,0-0.5-0.1-1.1-0.7
			C9.9-575.6-0.8-565,6.3-558.4L6.3-558.4z"/>
		<g>
			<path class="st6" d="M706.5-286.7c-0.5-7.7-3.3-15-10.4-18.9c-5.8-3.2-12-2.7-18.4-2.6c-7.5,0-15,0-22.5,0
				c-3.6,0-7.2-0.1-10.8-0.1c-2,0-3.9,0-5.9,0.5c-1.5,0.4-2.9,1-4.3,1.7c-1.4,0.7-1.6,0.9-0.7,0.4c-14.7,4.2-9.5,26.1,4.4,24.5
				c-2.9,1.7-5.3,4-6.9,7c-0.7,1.4-1.1,2.3-1.4,3.5c0.2-0.7-1,5.9-0.7,4.6c-0.6,2.2-0.9,2.1-2.2,5.6c-1.2,3.2-1.3,6.3-1.5,9.6
				c-0.3,5.9-1.2,11.9-1.6,17.8c-0.2,2.8-0.2,5.6-0.7,8.4c-0.7,3.5-2,6.7-2.2,10.3c-0.2,3,0,3.2-0.4,5.8c-0.4,2.7-0.1,5.3-0.2,7.8
				c0,0.2-0.1,0.4-0.2,0.6c-1.6,2.8-1.3,4.8-1.9,7.9c-0.5,2.7-1.7,5.2-2.9,8c-1.9,4.2-4.5,7.5-7.2,10.9c-4.3,5.4-7,12.1-9.4,18.6
				c-4,11-6.1,26.7-1,37.7c2.1,4.5,6.5,8.8,8.6,11.7c4.4,5.9,9.4,13.2,16.8,15.2c7.6,2.1,12.6-2,19-5.1c2.2-1,5.4-2.1,7.9-3.3
				c3.5-1.7,6.5-4.3,9.6-6.7c4.8-3.7,9.3-7,13.4-11.6c4.4-4.8,8.9-9.8,12.6-15.2c3.3-4.8,4.1-10.4,5.9-15.8c0.8-2.2,1.9-3.9,3.1-5.9
				c2.4-3.9,3.6-7.5,4.2-12c0.7-5.5,2.3-11.4,2.1-17.3c-0.2-7.1-0.1-14.3-0.1-21.4c0-7.8,0.1-15.6,0-23.3c0-3.1-0.1-6.2,0.3-9.3
				c0.5-3.9,1.4-7.8,1.5-11.8c0.2-7,2.3-13.5,2.7-20.5C705.5-274.1,706.9-280.8,706.5-286.7z M681.5-286.7c0,0-0.1,0.2-0.1,0.4
				C681.4-286.5,681.4-286.6,681.5-286.7z M675.7-216.9c0,7.1,0,14.2,0,21.3c-0.1-0.6-0.2-1.1-0.3-1.7c-0.3-1.1-0.7-2.1-1-3.2
				c0.1,0.3-0.3-2.3-0.3-2.8c0-3.8,0.1-7.7,0.1-11.5c0-3.6,0-7.2,0-10.7c0-2.5-0.5-5.4-0.1-7.9c0,0.4,0.6-1.2,0.6-1.3
				c0.5-1.3,1.1-2.6,1.6-4c0-0.1,0-0.1,0.1-0.2c-0.3,2.1-0.6,4.3-0.6,6.4C675.7-227.3,675.7-222.1,675.7-216.9z M642.6-138.3
				C643.1-136.9,642.5-136.8,642.6-138.3L642.6-138.3z M620.1-200.9C620.2-201.3,620.2-201.2,620.1-200.9L620.1-200.9z M665-146.5
				c0.2-0.7-1.3,2-0.1,0.5c-5.3,6.9-10.9,13.9-17.9,19c-3.4,2.5-6.9,5.6-10.4,7.2c-2.4,1.1-5,1.9-7.3,3c-0.2,0.1-0.4,0.2-0.5,0.3
				c-1-1.3-2-2.8-2.9-4c-1.5-2-3.2-3.8-4.8-5.8c-1.1-1.2-1.3-1.5-0.8-0.9c-0.9-1.3-1-1.6-0.4-0.9c0-0.1,0-0.3,0-0.4
				c0.7,1.4,1.6,2.8,2.7,4.1c2.8,3.1,8.2,4.6,12.2,3.2c6.1-2.1,9.5-5.8,14.2-8.8c6.1-3.9,9.3-8.9,13.1-14.8c1.6-2.5,3.2-4.9,4.6-7.5
				c-0.3,1.2-0.6,2.4-0.9,3.6C665.6-148.5,664.7-145.3,665-146.5z M672.4-165.6c0.6-1.5,1.1-3,1.6-4.5c-0.1,0.5-0.1,1.6-0.2,2.4
				c-0.2,0.1-0.6,0.7-0.6,0.7C672.9-166.5,672.7-166.1,672.4-165.6z M681.5-281.5c-0.2,4.4-1.1,6.9-1.3,11.6c-0.2,3.6-1,6.3-1.8,10
				c-0.2,0.9-0.3,1.7-0.4,2.6c0-2.6,0-5.3,0.1-7.9c0.2-5.8-0.1-12-3-17.2c-0.1-0.3-0.3-0.5-0.5-0.7c1.1,0,2.1,0,3.2,0
				c1.2,0,2.4-0.1,3.7-0.1C681.5-282.4,681.5-281.6,681.5-281.5z M684.9-283.4C684.9-283.4,684.9-283.4,684.9-283.4
				C686.2-283.3,685.5-282.9,684.9-283.4z"/>
			<path class="st6" d="M629.7-270.8c0,0.1-0.1,0.2-0.1,0.5C629.6-270.5,629.7-270.6,629.7-270.8z"/>
		</g>
		<path class="st6" d="M506.6-552.7c-4.6,0-11,0.6-14.3-0.3c-5.4-1.4-10.5-0.7-14.5,3.5c-6.5,6.6-4.7,18.5-1,26
			c4.2,8.4,12.3,19.2,23.1,16.2c5.2-1.4,7.8-6.4,10.7-9.2c4.6-4.5,7.2-8.7,8.1-15.2c0.7-5.4-5.1-10-10-10c-6,0-9.3,4.6-10,10
			c0.3-2.5-0.6-0.5-1.7,0.6c-1.5,1.5-2.8,3-4.1,4.7c-3.9,5.3,5.9-1.4,5.9,0c0-0.6-2.5-3.5-2.7-3.8c-0.3-0.6-2-3.5-1.6-2.5
			c0.6,1.2-0.2-0.5-0.2-0.8c-0.1-0.6-0.3-1.3-0.5-1.9c-0.1-0.5-0.6-2.3-0.2-2.4c0-0.6,0-0.7,0-0.1c0,0.3-0.1,0.6-0.3,0.8
			c-0.5,0.4-5.3,3.3-2.9,2.9c-1.8,0-3.5,0-5.3,0c3.3,0.5,6,1.7,9.5,1.6c4-0.1,8.1-0.1,12.1-0.1C519.5-532.7,519.5-552.7,506.6-552.7
			L506.6-552.7z"/>
		<path class="st6" d="M383.6-518.7c-14.3-1.3-23.4,17.3-20.1,29.2c2.1,7.5,8.4,12.4,14.2,17c6.4,5.1,11.3,8.6,19.9,7.4
			c-1.8,0-3.5,0-5.3,0c3.4,0.6-1.9-0.9,1.6,0.5c2.1,0.9,4.3,1,6.5,0.5c3-0.7,5.8-2.6,7.4-5.3c2.5-4.1,2.3-8.8,0.9-13.2
			c-1.5-4.6-4.2-8.1-6.9-12.1c-3.3-4.7-6.3-9.6-10-14.1c-3.4-4.2-10.6-3.5-14.1,0c-4.1,4.1-3.4,9.9,0,14.1c3.1,3.8,5.5,8.2,8.4,12.2
			c1.3,1.8,2.6,3.6,3.6,5.6c-0.7-1.6-0.1,0.1,0,0.1c0.2,1.1,0.3,1.3,0.3,0.6c-0.1-1.1,0.1-2.2,0.7-3.2c1.2-1.2,2.4-2.4,3.6-3.6
			c0.3-0.1,0.6-0.2,0.9-0.3c2.6,0.3,5.1,0.7,7.7,1c-1.5-1.2-3.3-1.7-5.1-2c-1.3-0.4-2.7-0.5-4-0.2c-2.2,0.2-1.8,0.3,1.4,0.2
			c0-1.1-8-6.3-8.9-7.1c-1.7-1.5-3.9-2.9-3.3-5.1c0.1-0.2,0.9-1.5,0.6-1c1.9-2.9,2.8-0.9,0.3-1.1c5.4,0.5,10-5,10-10
			C393.6-514.5,389-518.2,383.6-518.7L383.6-518.7z"/>
		<g>
			<path class="st5" d="M568.3-665.9c0,0.1,0.1,0.2,0.2,0.3C568.4-665.8,568.3-665.8,568.3-665.9z"/>
			<path class="st5" d="M733-423.5c-3.4-4.6-7.7-6.6-12.1-9.9c-0.1-0.2-0.3-0.4-0.6-0.9c-2.2-3-4.6-5.4-7.8-7.2
				c-4.8-2.7-10.7-3.3-16.2-3.2c-1.2-1.1-2.4-2.1-3.6-3.2c0.1,0.1-0.6-0.5-1.3-1.1c-0.8-2.2-2-4.4-3.3-6.3c-1.4-2-3.3-3.8-4.8-5.8
				c0.3,0.3-0.5-1.2-0.6-1.4c-0.5-1.3-1.2-2.7-1.9-4c-1.2-2.3-2.9-4.6-4.7-6.5c-0.6-0.6-3-2.7-3-2.5c-1.4-1.7-2.5-3.7-4.1-5.3
				c-2.3-2.3-5.3-3.8-8.3-4.9c-0.2-0.3-0.4-0.6-0.6-0.9c-0.1-0.1-0.7-1.1-1-1.6c-0.2-0.4-0.5-1-0.5-1c-0.9-1.8-1.3-3.2-2.2-4.7
				c-0.3-0.5-0.7-1-1-1.5c0.2,0.1-0.7-2.1-0.6-1.2c-0.9-5,0-8.7-0.4-14.2c-0.4-4.8-1.2-9.7-2.9-14.2c-0.1-0.1-0.1-0.2-0.1-0.3
				c0.1-1.3,0-2.5,0-3.8c0-2.5,0-5.1,0-7.6c0-5.2,0-10.3,0-15.5c0-5.8,0.6-12.2-2.6-17.3c-0.2-0.3-0.8-0.9-1.4-1.7
				c0.2-1.8,0.6-3.7,0.8-5.5c0.2-2.2,0.2-4.3,0.1-6.5c0-0.8-0.1-1.8,0-2.6c0.1-0.2,0.2-0.7,0.5-1.6c1.8-5.3,1.6-10.9,1.5-16.4
				c-0.1-4.6-0.1-9.3,0-13.9c0.1-2.7,0.1-5.2-0.2-7.9c-0.2-1.4-0.4-2.9-0.6-4.3c-0.1-0.6-0.2-1.9-0.2-2.1c-0.1-5-0.1-10-0.1-14.9
				c0-1.3,0.1-2.6,0-3.9c0-0.1,0-2.3-0.1-1.9c0.3-2.9,1-5.8,1-8.7c-0.1-5.5-1.8-11.8-5.2-16.1c-4.5-5.5-10.9-7.6-17.8-7.5
				c-4.7,0-9.5,0.7-14,2.1c-0.5,0.1-5,1.2-4.1,1.3c-1.6,0.1-3.2-0.2-4.8,0c-3.2,0.3-6.2,1.1-8.8,2.6c-2-6-7.3-10.9-14.2-10.6
				c-7.8,0.3-15.5,6.6-15,15c0.1,2.6,0.1,6.4,1.7,8.8c-0.4-0.8-0.1-1.6,0.3,0.2c0.4,1.7,0.5,3.8,0.8,5.7c0.4,2.3,0.8,4.5,1.2,6.8
				c0.6,3.1,0.9,4.3,0.8,6.1c-0.2,2.9,0.1,6.1,0.8,9c0.2,0.9,1,3.7,2,5.6c-0.2,0.6-0.3,1.1-0.3,1c-0.8,2.9-1.3,5.7-1.7,8.6
				c-0.8,5.7-0.2,11.1,1.1,16.6c0.5,2.1,1,4.2,1.6,6.4c0.3,1,0.6,2.1,0.8,3.1c0,0.2,0.1,0.3,0.1,0.4c0,0.3,0,0.7,0,1.3
				c-0.1,10.3,0.1,20.6,0.2,30.9c0,10.5-1.2,20.9-1.2,31.4c0,11.2,0.6,21.4,3.2,32.3c0.5,2.3,0.9,4.6,1.6,6.8
				c0.2,0.7,0.5,1.3,0.7,1.9c-0.4,0.3-0.7,0.6-1,0.9c-8.2,8.3-6.2,23.7-4.7,34.3c0.7,5,0.6,8.8,1.5,14.2c0.5,2.8,1.4,5.3,2.9,7.8
				c0.7,1.2,1.8,2.4,2.6,3.5c-0.5-0.5,0.2,0.9,0.2,0.6c0.1,0.4,0.2,0.7,0.2,0.9c0.5,1.6,1.1,3.2,2,4.7c1.2,2.3,2.9,4.5,4.6,6.4
				c4,4.4,9.8,8.3,15.5,9.9c2.9,0.8,5.9,1.1,8.9,1.4c0.4,0,1.1,0,1.8,0.1c3.4,3.4,8.5,5.8,12.8,7.7c4.9,2.2,9.8,4.1,15.2,4.9
				c3.1,0.5,6.2,0.9,9.3,0.9c0.1,0,0.4,0,0.7,0c0.2,0.1,0.4,0.3,0.6,0.4c4.2,3,8.6,5.3,13.5,7.2c2.6,1,5.1,1.6,7.9,2
				c1.5,0.2,3,0.4,4.6,0.5c0.2,0,0.3,0,0.4,0c1.2,0.2,2.4,0.3,3.6,0.5c0.6,0.1,1.5,0.1,2.3,0.2c0.1,0.2,1.5,0.9,1.5,0.8
				c-1.4-1.2,0.1,0.1,0.6,0.4c0.9,0.5,1.7,1,2.6,1.4c6.7,3.3,13.6,3.1,20.6,1.2c10.3-2.7,22.7-3.2,28.4-13.7
				C745.3-403.7,739.6-414.6,733-423.5z M721-433.2C721-433.3,721-433.3,721-433.2C721-433.3,721-433.3,721-433.2
				C721-433.3,721-433.3,721-433.2z M720.9-433.4c-0.1-0.1-0.3-0.3-0.5-0.6C720.6-433.8,720.8-433.6,720.9-433.4
				C720.9-433.4,720.9-433.4,720.9-433.4z M631.6-458.2C631-458.7,631-458.7,631.6-458.2C631.6-458.3,631.6-458.3,631.6-458.2z
				 M604-471.7c-0.1,0.1-0.2,0.3-0.4,0.4c0,0,0-0.1,0-0.1C603.7-471.5,603.8-471.6,604-471.7z M692.1-447.1
				C692.2-446.6,692.2-446.4,692.1-447.1L692.1-447.1z M691.1-449.2c-0.5-0.4-0.9-0.7-0.9-0.7C690.5-450,690.8-449.7,691.1-449.2z
				 M648.8-458.6C647.4-459.5,648.1-459.5,648.8-458.6L648.8-458.6z M646.3-572.8c-0.1-0.2-0.2-0.4-0.2-0.5
				C646.1-573.3,646.2-573.1,646.3-572.8z M648.1-458.1c0.5,0.2,1,0.4,1.4,0.5c1.1,1.4,2.1,2.6,3.4,3.9c0.5,0.4,1,0.8,1.4,1.3
				c0.1,0.3,0.6,1,0.7,1.2c0.7,1.7,1.6,3.5,2.5,5.1c-0.9-0.5-1.8-1.1-2.7-1.7c-4.5-2.9-8.4-5.8-13.7-7.3c-2-0.6-4.1-0.8-6.1-1.3
				c-0.2,0-0.7-0.3-1.2-0.5c0-0.1-0.4-0.3-1-0.6c-0.1-0.2-0.1-0.4-0.2-0.6c-0.1-0.4-0.2-0.6-0.2-0.6c0-0.3,0-0.6,0-1.1
				c0-1.1,0-2.2,0-3.3c0-4.9-0.7-9.7-1-14.5c1.1,2.3,2,4.8,3.2,7C638.2-464.9,641.6-460.4,648.1-458.1z M607.2-651.7
				c0.6,0,1.1,0.1,1.7,0.1C605.9-650.9,603.9-652,607.2-651.7z M600.3-469.2c0.7-0.4,1.3-0.8,2-1.2c0,0.1,0,0.2,0,0.3
				c-1,0.7-2.2,1.4-4,2C599-468.4,599.9-469,600.3-469.2z M614.9-407.1c0.6,0,1.2,0.1,1.6,0.2C616.2-407,615.1-406.9,614.9-407.1z
				 M654.2-393.7c0.5,0,0.9,0,1-0.1C655-393.6,654.6-393.6,654.2-393.7z M721.1-433.2C721.1-433.2,721.1-433.2,721.1-433.2
				C721.2-433,721.3-433,721.1-433.2z"/>
		</g>
		<path class="st1" d="M121.2-552.5c-2.7,5.3-6.3,10-8.9,15.4c-2.5,5.1-3.9,10.5-5.2,16c-1.3,5.5-2.4,11.1-3.7,16.7
			c-0.4,1.7-1,3.4-1.4,5.1c-0.1,0.5-1.1,2.2-0.3,1.4c0.6-0.5-2.5,0.6-3,0.7c1.3,0,2.7,0,4,0c-3.1-0.4-4.6-5.5-4.4-8.3
			c0.5-4.7,1.4-10.8,3.4-15.1c2.5-5.3,4.1-10.7,5.9-16.3c1.5-4.7,6.2-7.8,9.4-11.4c6.3-7.3-4.3-17.9-10.6-10.6
			c-4.8,5.6-10.3,9.5-12.8,16.7c-1.3,3.7-2.1,7.6-3.6,11.3c-1.4,3.6-3.4,6.7-4.1,10.6c-1.3,6.5-3.4,13.8-2.2,20.4
			c1.1,6.1,5.5,12.8,11,15.8c5.2,2.8,11.1,1.2,15.9-1.8c5.7-3.5,6.8-11.9,8.1-17.9c1.5-6.9,2.7-13.8,4.8-20.6
			c2.3-7.5,7.1-13.5,10.7-20.5C138.5-553.5,125.6-561.1,121.2-552.5L121.2-552.5z"/>
		<path class="st6" d="M348.7-250.7c-1.6-6.3-1.4-13-2.9-19.4c-1.2-5.1-0.3-10.4-0.9-15.6c-0.8-8-5.1-15.3-13.3-17.7
			c-6.1-1.8-13-1-19.3-0.9c-4.6,0-9.2-0.4-13.7,0c-12.3,1-22.4,7.9-23.3,21.1c-0.5,7.5,1.8,14.8,3.9,21.9c2,6.7,1.9,12.8,1.9,19.8
			c0,16.1,0,32.2,0,48.4c0,8-0.7,16.5,0,24.5c-0.1-1-0.1-0.3-0.1,0.2c-0.2,0-1.4,2.8-1.7,3.3c-2.1,3.4-3.9,6.7-5.5,10.4
			c-2.1,5.2-3.1,12-5.8,16.2c-3.8,6-9.8,11.4-14.7,16.4c-9,9.2,0.5,22.3,10.4,21.4c1.9,5.9,3.8,12.6,8.4,16.9c5,4.6,12.6,6.1,18.9,4
			c6.9-2.3,10.7-8.7,14.2-14.6c1.6-2.7,3.1-5.5,4.7-8.2c0.6-1,1.2-1.9,1.8-2.9c0.3-0.5,0.5-0.9,0.6-1.1c0.1-0.1,0.4-0.3,0.7-0.6
			c4.1-4,8.4-8.7,10.1-14.4c2-7.1-0.6-12.9-2.7-18.8c-2-5.6-1.6-11.7-3.5-17.4c-0.5-1.4-0.9-2.8-1.3-4.2c0-0.1,0-0.2-0.1-0.2
			c0.2-0.6,0.4-1.5,0.6-2c0.2-0.4,1.5-3,1.3-2.7c1-1.9,2.1-3.9,3.3-5.7c-0.2,0.4,2-2.1,1.9-2c1.2-1.1,0.6-0.6,2.1-1.6
			c4.8-3.1,10.1-5.2,14.5-9c4.4-3.8,7.2-8.9,9.1-14.3c3.5-9.9,3-21,3.2-31.3C351.4-237.7,350.4-244,348.7-250.7z M326.2-227.5
			c0,4.1,0,8.3-0.3,12.4C325.8-219.2,325.7-223.3,326.2-227.5z M280-101.6c-0.1,0.2-0.1,0.3-0.1,0.3
			C279.9-101.4,279.9-101.5,280-101.6z M315.3-162.8C315-164.1,315.2-163.5,315.3-162.8L315.3-162.8z"/>
		<path class="st3" d="M637.1-262.2c4.1,0.1,8,1,12,1.4c4.5,0.4,8.9,0.2,13.4,0.1c9-0.1,18,0,27.1,0c12.9,0,12.9-20,0-20
			c-9,0-18-0.1-27.1,0c-4.2,0-8.4,0.4-12.5-0.1c-4.3-0.4-8.5-1.4-12.9-1.5C624.2-282.4,624.2-262.4,637.1-262.2L637.1-262.2z"/>
		<path class="st3" d="M632.6-223.2c4.9,0.2,9.8,1,14.7,1.4c4.1,0.4,8.2,0.2,12.2,0.9c9.1,1.5,17.9,0.8,27.1,0.7
			c12.9-0.1,12.9-20.1,0-20c-8.5,0.1-16.6,0.7-25.1-0.5c-4.7-0.7-9.5-0.6-14.2-1c-4.9-0.4-9.7-1.3-14.7-1.4
			C619.7-243.6,619.7-223.6,632.6-223.2L632.6-223.2z"/>
		<path class="st3" d="M617.6-160.2c-2.9-0.2-2.1-1.3-1.2,0.2c0.4,0.5,0.9,1.1,1.3,1.6c1.3,1.7,2.3,3.7,3.3,5.7
			c2.6,5.1,3.8,10.6,7.2,15.3c3.1,4.2,5.2,7.2,6.5,12.2c1.4,5.4,3.2,10.6,7.2,14.6c9.2,9,23.4-5.1,14.1-14.1
			c-0.6-0.5-1.4-3.3-1.9-5.2c-0.7-2.8-1.5-5.4-2.6-8.1c-2.4-5.6-7.1-9.7-9.4-15.3c-4.6-11.5-10.5-25.7-24.7-26.9
			c-5.4-0.5-10,4.9-10,10C607.6-164.4,612.2-160.7,617.6-160.2L617.6-160.2z"/>
		<path class="st3" d="M582.4-130.1c1.4,9,10.7,13,15.9,19.4c3.2,3.9,6.2,8.1,9.2,12.1c0.5,0.7,1.1,1.8,1.7,2.3c0,0-0.5-2.7,0.1-0.8
			c1.1,3.6,1.4,5.9,4.1,8.8c8.8,9.4,23-4.8,14.1-14.1c-0.3-0.3-0.6-0.6-0.8-0.9c0.9,1.5,1.7,2.9,2.6,4.4c0,1.3-0.1,1.4-0.2,0.2
			c0-1.3-0.2-2.5-0.7-3.7c-0.9-2.6-2.4-4.8-4.1-7c-2.8-3.7-5.8-7.4-8.6-11.2c-2.8-3.8-5.8-7.2-9.3-10.3c-1.2-1-2.6-1.9-3.7-3
			c-1.5-1.4-0.8,0.3-1.1-1.6c-0.8-5.3-7.5-8.3-12.3-7C583.7-140.8,581.6-135.4,582.4-130.1L582.4-130.1z"/>
		<path class="st1" d="M66-603.7c-2.4-3.1-6.1-4.7-10.1-3.8c-4.2,1-7.3,4.1-9.8,7.6c0,0-0.1,0.1-0.1,0.1c-3.3-6-9.7-7.8-16.5-7.1
			c-4.6,0.4-8.7,3.1-11.7,6.5c-0.8-1-2-2-2.4-2.4c-6.2-6.9-16.4,3.3-10.2,10.2c4.4,4.9,9.2,10.1,16.7,7.8c3.7-1.2,4.6-3.8,6.9-6.3
			c1.3-1.4,1.9-0.9,3.4-1.4c-0.4,0.1,0.6,0.2,1.2,0.1c0.2,0.5,0.5,1.3,0.7,1.8c0.4,1.4,0.8,2.7,1.5,3.9c1.9,3.1,5.6,5.2,9.3,5.2
			c3.8,0,6.9-2,9.3-4.8c0.7-0.9,1.6-2.4,2.5-3.9c0,0,0,0.1,0.1,0.1c1.3,2.4,3.6,4,6.3,4.4c6.5,1.1,9.7-3.8,12.9-8.4
			C80.5-600.6,71.9-606.9,66-603.7z M62.1-599.5c0,0.1,0,0.1,0,0.2C62.1-599.4,62.1-599.5,62.1-599.5z"/>
		<path class="st7" d="M730.2-416.2c-3.8-5.4-9.9-9.2-14.8-13.4c-3.1-2.6-5.7-5.5-8.5-8.3c-1.9-1.9-4.3-4.1-7.2-3.4
			c-4.2,1-6.6,6.8-8,10.3c-3.2,7.7-5.2,15.9-6.7,24.1c-0.5,2.7-1.2,5.5-1,8.3c0.2,2.5,1,4.9,1.7,7.3c0.4,1.4,0.6,3.7,1.5,4.9
			c3,4.1,13.3,3.2,17.7,3.2c6.6,0,12.4-0.9,18.7-2.6c3.9-1.1,6.2-0.9,8.6-4.1c1.5-1.8,2.9-2.3,3.8-4.7
			C735.1-401.8,734.6-410.1,730.2-416.2z M656.9-394.8c1.9,0.4,3.4,1.3,4.9,0.2c1.4-1.1,2.4-3.5,3-5.1c1.1-3.1,1.2-6.6,0.1-9.8
			c-2.5-7.2-10.8-12-18.2-10.2c-7.6,1.8-12.8,9.6-12,17.3C640.3-397.2,649.7-396.5,656.9-394.8z M617.5-444.7c0,2.3-0.6,4.8-0.5,7.1
			c0.2,2.6,1.8,3.7,4.2,4.3c4,1,9.2,0.3,12.9-1.5c4.9-2.3,6.4-6.8,4.4-11.7c-1.5-3.7-4.5-8.5-8.1-10.3c-4.5-2.2-9.2,0.2-12.8,3.1
			C617.3-450.8,617.5-447.8,617.5-444.7z M682.3-450.9c-0.8-1.5-1.5-3.4-2.8-4.7c-1.8-1.8-4.7-2.4-6.8-4c-1.7-1.4-3.1-3.2-5-4.4
			c-0.8-0.5-3.1-2-4-1.7c-0.4,0.1-0.6,0.8-0.9,1c-1.1,0.8-1.7,2.5-2.8,3.2c-0.9,0.6-1.5,0.5-1.9,1c-1,1.2-1.5,5.5-1.8,7.1
			c-0.5,2.4-0.8,5-0.3,7.5c1.3,5.3,6.8,8.7,12,9.2c6.6,0.6,12.4-3.5,14.5-9.3C684.1-448,683.6-448.3,682.3-450.9z M611.8-463.6
			c0-1.8,0.2-3.6-1.4-4.7c-1.8-1.1-5-1.2-7-1.7c-5.3-1.5-10.4-3.6-16-3.5c-1.6,0-7.9,0-8.7,1.1c-0.3,0.5,0.1,2.6,0.2,3.1
			c0.2,4.4,0.5,8.8,0.7,13.2c0.2,2.9-0.1,6.3,0.8,9.2c0.8,2.4,3.1,3.3,3,5.9c-0.1,1.6-0.7,2.8-0.6,4.5c0.1,1.7-0.1,4.8,0.5,6.2
			c0.5,1.1,1.5,1.3,2.8,1.9c2.6,1.3,4.9,3.2,7.2,4.9c5.6,4.2,11.2,8.6,18,10.6c-2.8-3.4-1.3-9.8-0.8-13.7c0.8-6.1,2.1-12.3,1.6-18.5
			C611.8-451.2,611.8-457.4,611.8-463.6z M578.5-489.2c-2.5,9.8,12.4,8.9,18,10.3c0-2.3,0.1-3.1-1.5-4.9
			C594.4-491,581.2-499.7,578.5-489.2z M640.2-476.4c3.1-1.3,3.5-4.9,5.1-7.5c1.2-2,1.6-3,1.4-5.5c-0.2-2.8-0.6-8.2-2.6-10.1
			c-2.7-2.5-9.7-2.4-12.8-1.1C616.7-494.5,624.6-469.9,640.2-476.4z M606.7-533.1c-6-2.2-12.8,1.4-16,6.5c-3.2,5-2,12.1,2.5,16
			c6.6,5.8,16,1.8,22.1-2.7C615.9-520.5,614.5-530.3,606.7-533.1z M646.3-555.3c0-2.1,0.4-3-0.8-4.3c-2.1-2.2-5.9-3.4-8.7-3.7
			c-6.8-0.8-13.8,1.5-15.4,8.7c-1.2,5.6,0.8,12,4.8,16c5.4,5.4,13.1,5.2,19.7,2.3C646-542.6,646.2-548.9,646.3-555.3z M578-557.2
			c0.6,2.2,1.3,2.4,3.7,3.3c2.7,1,5.6,1.7,8.5,1.6c7.7-0.1,9.1-6.1,7.1-12.6c-1.3-4.4-3.3-8.5-8-9.8c-4.9-1.5-9.8,0-13.8,3.1
			C576.4-566.9,576.6-561.8,578-557.2z M608.6-593.4c1.5,6.4,7.3,9.1,13.5,7.8c6.2-1.3,12-6,13.6-12.3c2.4-9.6-7.2-23.3-17.9-18.5
			C608.7-612.2,606.5-602.6,608.6-593.4z M575.8-619.1c-0.3,4.9,0.4,8.4,6.4,8.3c6.2,0,12.5-2.4,10.5-9.6c-1.1-4-3.8-7.6-6.8-10.4
			c-3-2.9-5.3-3.4-9.4-2.1C576.3-628.3,576.1-623.7,575.8-619.1z M642.9-645.1c-20.5-7.9-19.2,16.8-0.6,13.3L642.9-645.1z
			 M629.3-676.8c-2.1,0.9-1.2,5.9-1.1,7.7c0.1,4.4-1.2,9.4,4.5,9.5C634-661.9,635-679.4,629.3-676.8z M622.8-672
			c-0.1-0.7,0-3.5-0.5-4.1c-0.2-0.2-4.5-1-4.7-0.9c-0.7,0.5-1.2,4.5-1.4,5.4c-0.5,2.7-1,6-0.5,8.7c0.9,4.5,4.9,3.5,8.5,2.9
			C623.8-663.9,623.3-667.9,622.8-672z M611.2-659.9c0.4-0.5-0.1-3.2-0.2-3.9c-0.1-2.3-0.2-4.5-0.3-6.8c0-1.2,0.4-4.1-0.2-5.2
			c-1.4-2.6-6.6-1.6-7.6,1.4c-1.3,3.9-1.7,10.7,0.1,14.4C604.8-659.4,609.7-658,611.2-659.9z M597.8-668.4c0-1.5,0.2-9-3.1-7.4
			c-3.3,1.6-2,13.2-0.4,15.6C599.4-658.9,597.8-665.4,597.8-668.4z M583.8-659.6c0.8,0.1,1.8-0.2,2.6-0.4c1.8-0.3,1.6-0.1,2.1-1.5
			c0.8-2,0.4-5.9,0.3-7.9c-0.1-2.2-0.1-5.5-2.4-6.4c-2.3-0.9-2.4,0.5-3.3,2.3c-1,1.8-1.7,4.3-2,7.1
			C581.1-663.7,580.4-660,583.8-659.6z M643-673.4c-0.2-2.2-2.3-5.7-4-2.9c-2.5,3.9-2.7,15.3,2.8,17
			C643.8-662.7,643.3-669.5,643-673.4z M576.3-665c1.8-0.6,1.5-5.7,1.2-7c-0.4-1.8-0.5-1-1.2-2.1c-0.8,1.3-1,1.4-0.9,3.1
			C575.2-670.1,573.3-664,576.3-665z M718.2-378.1c-4.2,0.7-8.6,0.7-12.8,1.1c-9.7,1-19.8-2.5-29.1-5.3c-9.7-3-19.5-6.1-29.2-9.1
			c-12.7-4-25.1-8.5-37.1-14.4c-4.8-2.4-9.6-4.9-14-8.1c-3.5-2.6-6.8-5.4-10.5-7.6c-3.1-1.9-6.7-3.1-9.6-5.4
			c-1.9-1.4-5.5-5.1-5.4-7.7c0.1-1.6,1.6-2.6,2.4-3.7c0.3-0.4,1.2-0.8,1.4-1.3c0.4-1-0.1-3.7-0.1-4.8c-0.2-5-0.5-10-0.8-14.9
			c-0.5-10.1,0-20.1-0.5-30.2c-0.2-4.1,0.3-8,0.1-12.1c-0.5-8.8-0.6-17.6-0.8-26.4c-0.3-17.5-0.3-35-1.7-52.5
			c-0.8-11.2-0.6-21.9,0.1-33.1c0.8-11.9,0.2-23.7-0.4-35.7c-0.3-6.4-0.6-12.8-0.8-19.3c-0.1-3.4-1.3-9.8,0.3-13
			c1.1-2.2,3.1-0.4,4.8,0.1c2.9,0.9,6.4-0.1,9.4-0.3c9.4-0.7,18.8-0.7,28.1-0.6c6.3,0,12.6,0.1,18.9-0.5c2.8-0.3,5.6-0.6,8.4-0.8
			c1.4-0.1,4.2-1,5.6-0.6c3,1,2.8,11.1,2.9,13.8c0.3,7.4,0.1,14.8-0.2,22.2c-0.6,16.5-0.2,33,1.1,49.5c1.3,16.6,2.7,33.1,2.4,49.7
			c-0.4,15.4-3,31-1.2,46.4c0.8,7,2.7,14.1,6.8,19.9c2.5,3.6,5.9,5.9,9.1,8.8c3,2.7,5.7,5.7,9.1,8c7.5,5.1,15.6,9.5,23.2,14.6
			c7.9,5.3,15.6,10.9,22.5,17.4c6.4,6.1,13.7,11.8,17.2,20.2c2.6,6.4,3.9,14,1.9,20.7c-0.9,2.9-2.5,6.2-5.1,8
			c-2.5,1.7-2-0.1-3.3,3.2C726.9-381.2,722.8-378.9,718.2-378.1z"/>
		<path class="st7" d="M258.4-455.7c0.6,1.3,2.9,3.4,3,4.6c0.2,1.2-1.4,3-1.5,4.3c-0.1,1.3,0.6,5.4,1.6,6.1c1.4,1.1,6.5-1.6,8.3-2.4
			c3.5-1.5,6.8-3.5,10.3-5c2-0.9,4.1-1.6,6-2.6c0.5-0.3,2.6-1.2,2.8-1.7c0.1-0.5-0.8-2-1-2.5c-1.1-3.2-1.2-6.6-1.7-9.9
			c-0.7-4.4-1.6-8.7-2.2-13.1c-9.6,3.4-19.1,6.7-28.7,10.1C255.9-463.7,256.6-459.5,258.4-455.7z M323.4-467.8
			c-10.2,8.1-21.3,16-33.1,20.7c-8.1,3.3-16.1,6.8-24.1,10.3c-10.1,4.4-19.3,8.2-30.4,9.9c-9.5,1.5-19,0.9-28.4-1
			c-4.5-0.9-8.9-2.1-13-4.1c-3.1-1.5-5.9-3.5-9.2-4.7c-4.8-1.7-9.5-1.6-13.3-5.5c-2.7-2.8-5.9-7.3-6.8-11.1c-0.8-3.5,1.2-7.8,2-11.1
			c2.4-10.5,9.8-20,17.7-27.1c12.2-10.9,26.8-16.9,41.5-23.3c13.1-5.7,26.7-12.1,31.8-26.4c3.6-10.1,5.4-21.4,7.6-31.9
			c0.9-4.6,3.3-10.6,1.1-14.9c-1.8-3.6-0.9-3.3,1-5.9c3.3-4.3,2.3-11.8,2.2-16.8c-0.2-8.6,0.7-17.2,1-25.8
			c0.4-11.8,1.7-23.7,3.2-35.3c0.3-2.2,0.4-4.7,1.1-6.8c0.1-0.4,0.1-1.4,0.5-1.8c0.9-0.9,4.6-0.7,5.8-0.8c7.7-0.4,15.3,1,23,1.2
			c9.2,0.2,18.4,0.2,27.6,0c3.8-0.1,8.9,0,12.4-1.5c1.1-0.5,1.9-1.4,2.9-2.1c2.1-1.5,3.6-1.4,6-0.1c1.7,0.9,1.9,0.2,1,2.7
			c-0.5,1.3-1.2,2.5-1.6,3.8c-1.3,3.7-0.3,7.5,0.2,11.2c0.7,4.5-0.5,8.8,0.5,13.3c0.6,2.5,1.1,4.9,1,7.4c-0.1,14.4,1,28.7-0.2,43.1
			c-0.4,4.3-1.5,8.3-2.3,12.5c-0.8,4.3-0.9,8.6-1.3,12.9c-0.7,8.8-1.7,17.6-3.1,26.3c-2,13-2.8,26.2-4.7,39.3
			c-1.2,8.5-2.3,17.2-5,25.3c-0.6,1.8-1.2,3.8-2.5,5.2c-0.5,0.5-1.2-0.1-1.6,0.3c-2,2.4,0.6,2.2-3.3,3.4
			C328.2-473.6,326.5-470.3,323.4-467.8z M267.1-522.8c-1-1.1-2.3-2-3.3-3.1c-1.1-1.1-2-3.1-3.3-3.9c-1.7-1-2.7,0-4.1,1.5
			c-0.9,0.9-1.5,2-2.3,3c-1.7,2.1-3.8,3.1-6.1,4.3c-2.2,1.1-5.6,2.1-7,4.1c-1.5,2.2-0.5,5,0.2,7.3c0.8,2.7,1.8,5.4,2.8,8
			c0.8,2.3,0.4,2.3,2.5,2.3c1,0,2.5-0.8,3.4-1.1c4.9-1.7,9.8-3.8,14.7-5.5c1.7-0.6,4.1-0.8,5.6-1.6c1.3-0.7,1.7-1.5,3.4-2.1
			C271.9-514.1,270.4-519.2,267.1-522.8z M330.1-564.5c-1,0-4.2,0-4.8,0.5c-1.8,1.7-1.5,7.4-1.6,9.5c-0.3,4.3-1.3,11.4,0.5,15.5
			c0.9,2.1,0.6,1.6,3.3,1.6c1.6,0,3.2,0,4.7,0.1c2.1,0.1,4.3,0.3,6.4-0.3c3.9-1,3.5-2.3,4-5.8c0.5-3.8,1-7.7,1.5-11.5
			c0.3-2.1,0.5-4,0.5-6.1c0-4,0.8-5.3-3.5-5.2C337.6-564.4,333.8-564.6,330.1-564.5z M313.1-466.2c2-1.9,4.2-3.4,6.3-5.1
			c5.6-4.5,10.9-9.7,13.8-16.4c5.5-12.7,3.8-27.2,7-40.4c-4.2,1.2-7.3,0.1-11.5,0.1c-5.8-0.1-11.8,1.3-17.5,2.2
			c-6.6,1.1-10.9,3.5-10.9,10.5c0,4-0.5,7.9-0.1,11.8c0.5,4.7,2.1,9.2,3.2,13.7c1.3,5.3,1,10.7,2,15.9c0.4,2.2,1.4,3.9,2.1,5.9
			c0.5,1.7,0.1,3.5,0.6,5.1C310.6-463.4,311.3-464.4,313.1-466.2z M224.9-471.8c0.5,1.7,0.6,4.2,1.4,5.7c1.1,2.1-0.1,1.2,1.8,1.2
			c4.2,0,9.7-3,13.5-4.6c1.5-0.6,4.3-1.3,5.5-2.6c1.5-1.6-0.1-2.8-1.1-4.4c-1.3-2.1-1.2-4.4-1.6-6.9c-0.4-2.5-1.2-4.7-2-7.1
			c-7,2.6-14,5.1-20.9,7.7C222.8-479,223.9-475.4,224.9-471.8z M222.6-458c-1.2-6.5-2.2-16.9-7-21.9c-1.7-1.7-3.6-0.7-4.6-2.9
			c-0.9-1.9,0.1-4-0.3-5.8c-0.7-2.7-3.4-4.8-4.4-7.5c-0.5-1.3-0.3-3.1-1.5-3.5c-0.8-0.2-2.6,0.9-3.3,1.2c-2.8,1.3-5.4,3.2-7.9,5.2
			c-5.8,4.6-11.2,10.1-15.6,16.1c-4,5.5-6.4,11.7-7.3,18.5c-0.5,3.5,0,6.9,2.2,9.9c2.7,3.7,6.5,4.5,10.6,5.8
			c5.8,1.9,10.9,5.2,16.6,7.4c7.6,2.9,17.3,4.2,25.3,3.4C225.4-440.8,224.1-449.5,222.6-458z M284.4-500.7c1.7,4.1,1.3,9.2,3.2,13.2
			c1.2,2.4-0.4,1.1,1.6,1.3c1.1,0.1,2.7-0.5,3.8-0.7c0.7-0.1,3.9-0.3,4.3-0.9c0.4-0.6-0.5-3.5-0.5-4.2c-0.3-2.4-0.6-4.9-1-7.3
			c-0.5-3.6-0.9-7.2-1.4-10.8c-4.1,0.5-8.1,2-11.5,4.3C282.9-503.7,283.6-502.6,284.4-500.7z M305.9-530.1c-3.6-2.3-7.9-2.1-12-1.8
			c0.4,2.3,0.8,4.5,1.2,6.8C298.5-527.3,302.8-527.3,305.9-530.1z M274.5-566.1c-4.4,0.3-6.2,1.6-7,5.9c-0.6,3-1,5.9-1.8,8.9
			c-0.5,1.8-1.3,3.8-1.4,5.6c-0.2,4.6,5.6,4.5,9,5c3.8,0.6,11.8,3.1,15.5,0.9c1.9-1.1,0.6,0.2,1.1-1.4c0.4-1.2,0-3.2,0-4.5
			c0.1-6.6,0.1-13.2,0.2-19.9C285-565.9,279.7-566.4,274.5-566.1z M320.9-579.9c0.1-2.9,0.7-6.9,0-9.8c-0.4-1.5,0.2-0.9-1.1-1.4
			c-0.9-0.4-2.7-0.1-3.7-0.1c-3.4,0-6.9,0.1-10.3,0.2c-1.2,0-5.7-0.5-6.7,0.3c-0.7,0.6-0.6,3.6-0.7,4.5c-0.7,4.9-1.3,9.8-2,14.7
			c7.6,0.4,15.2,0.9,22.9,1.3C320.9-572.8,320.8-576.9,320.9-579.9z M275.1-609.4c-0.2,2.2-1.2,5.9-0.6,8c1.1,4,11.5,4.6,15.1,4.1
			c3.7-0.5,3-1.1,3-4.4c0.1-2.7,0.1-5.4,0.2-8.1c0.1-3-0.1-3.4-3.3-4.9c-4.4-2.1-9.5-2-14-0.2C275.4-613.2,275.3-611.3,275.1-609.4z
			 M327-597.3c3.3-0.2,6.5-0.3,9.8-0.6c3.2-0.3,7.5-0.3,10.4-1.9c2.5-1.5,2.5-5,2.8-7.7c0.4-3.9,0.7-8,0.4-12
			c-7,3.2-14.4,1.7-21.7,3.2C328.1-610,327.6-603.6,327-597.3z M302.2-641.3c-3,2.6-2.9,7.9-3,11.5c-0.1,1.9-0.5,4.6,0,6.5
			c0.5,1.7,0,1,1.6,1.6c1.5,0.5,3.5,0.4,5.1,0.6c4.2,0.5,8.8,1,13,0.3c7.3-1.1,7.9-7.7,7.8-14c-0.1-3.1,0.6-9.5-4-9.4
			c-3.1,0.1-5.8,2.7-8.5,3.8C310.8-642.3,305.6-644.2,302.2-641.3z M301.6-656.3c-0.1,1.7-1,5.9,0,7.5c1.1,1.7,8.3,2.1,9.4,0.6
			c0.8-1.1,0.1-5.8,0.1-7.1c0-3.3,0-6.7-0.2-10c-0.2-4.8-0.1-12.5-7-8.9C301.8-669,301.9-661.9,301.6-656.3z M324.5-651.6
			c0.1-3-0.4-5.9-0.4-8.9c0-2.3,0.2-4.6,0.2-6.9c0-1.4,0.6-4.6-0.1-5.9c-0.7-1.2-3.4-0.7-5.1-0.7c-3.1,0-2.7,0.2-3.2,3.6
			c-0.9,7.2-1.3,14.7-0.1,21.9C319.2-648.4,324.4-647,324.5-651.6z M340.4-675.2c-0.8,1.2-0.1,5.6-0.1,6.9
			c-0.1,5.8-0.1,11.7-0.2,17.5c2.7,0,5.5-0.1,8.2-0.1c-0.3-8.7-0.6-17.5-0.9-26.2C346.2-676.8,341.1-676.3,340.4-675.2z
			 M296.6-648.4c0.9-1.5,1-4.2,1.3-5.9c0.9-5.1,1.7-10.7,0.7-15.9c-0.3-1.7-0.8-3.8-2.3-4.8c-0.9-0.6-2.1-0.6-3.1-0.6
			c-2.3,0.2-2.4,1.3-3,3.4c-2.1,8.4-0.5,16.9-0.5,25.4C292.1-646.7,295.3-646.2,296.6-648.4z M334.8-650.2c1-0.7,0.8-5.8,0.9-7.1
			c0.1-3.1,0.1-6.1,0-9.2c-0.1-1.8,0.1-5.8-1.1-7.3c-2-2.4-4.6,0.1-5.2,2.4c-1.8,6.7-1.1,14.3,0.3,21
			C330.6-650.3,334.1-649.6,334.8-650.2z M278.6-667.2c-0.6,3.7-1,7.4-1.3,11.2c-0.1,1.7-0.3,3.4-0.3,5.1c0,0.5-0.2,1.5-0.1,2
			c0.5,1.4-0.1,0.6,1.3,1.2c0.9,0.4,5.6,1.2,6.3,0.5c0.2-0.2-0.1-0.9,0-1.1c0.6-2-0.1-5.1-0.1-7.1c-0.1-3.2-0.1-6.5-0.2-9.7
			c-0.1-3.8,0.4-7.6-1-11.2c-0.8,0.4-1.6,0.9-2.5,1.3C279.2-673.1,279-669.6,278.6-667.2z"/>
		<path class="st7" d="M49.7-41.9c0.2-0.1-1.5-2.4-2.4-1.2C47.3-43,49.3-41.6,49.7-41.9z M112.7-239.9c-4.5,1.3-9-1.1-9.7-5.9
			c-0.9-5.9,4.4-10.2,9.5-11.9C122.9-261.2,121.5-242.5,112.7-239.9z M119-128.2c1.7,1.8,2.6,5.4,1.6,7.7c-1.1,2.7-4.9,4-7.6,3.2
			c-3.2-0.9-3.7-6.1-3.7-9.1C112.2-128.2,116.3-131.2,119-128.2z M74.6-100.7c-3.5,0.4-6.2-2.3-6.7-5.6c-0.6-4.2,2.3-7.3,6.2-8.3
			C82.6-116.6,82.8-101.6,74.6-100.7z M87.7-74.9C98.6-73,90.9-60.8,83-61.1C78.4-66.4,78.4-76.5,87.7-74.9z M145.2-178.9
			c0.7-4.2,5.3-4.3,8.7-2.9c3.4,1.3,4.3,4.6,4.6,7.9c0.3,4.2-5.2,6.5-9,6.1C146-170.4,144.5-174.4,145.2-178.9z M121.3-90.3
			c2.7,0.4,3.8,2.7,4.5,5.3c0.9,3.2,0.2,6.6-2.5,8.6c-2.3,1.6-5.5,1.9-7.7,0.1c-3.3-2.7-2.8-7.9-1.9-11.5
			C116-89.7,118.3-90.8,121.3-90.3z M102.1-176.2c3.3-0.1,5.5,2.1,5.8,5.3c0.3,3-1,6.6-3.6,8.4c-3.5,2.3-7.4,0.1-10.1-2.5
			C93.7-170.9,95.1-176,102.1-176.2z M152.7-243.7c2.1-1,5-1.5,6.6,0c1.4,1.4,2.3,4,2.4,5.9c0.5,5.2-3.5,8.6-8.1,10
			C148.6-231.3,145.6-240.5,152.7-243.7z M125.1-198.2c-2.8,2.7-7.3,2.4-9.5-0.8c-5.1-7.1,2.6-14.4,9.7-14.2
			C128.1-208.9,129.1-202.1,125.1-198.2z M128.3-63.8c1.3-3.2,1.5-1.3,3.9-2.4c2.2-1,4.3-3.6,6.5-4.8c2.1-1.1,2-1.4,1.4-3.7
			c-0.4-1.7-1.1-3.4-1.7-5c-1-2.4-2.2-4.8-3.1-7.2c-1.7-4.6-2.7-9.5-3.7-14.4c-1.1-5.6-1.9-11.2-2.5-16.9c-0.3-2.8-1.9-10-0.3-12.4
			c0.6-0.9,3-1.6,3.9-2.1c2-1,4-2,6-3c3.7-1.8,7.6-3.8,11.6-5c4.1-1.3,8.5-1.6,12.7-2.7c2-0.5,3.9-1.3,5.8-2.2
			c1.8-0.9,6.8-2.6,7.8-4.2c1.2-2.1-0.3-8.3-0.7-10.7c-0.5-3.6-1.2-7.2-1.7-10.8c-0.9-5.9-1.4-11.8-1.7-17.7
			c-0.5-9.7-2.1-19.2-3-28.9c-1-10.8-1.2-21.6-1.1-32.4c0-5,0-10,0.9-14.9c0.4-2.1,2.6-8.8,1.1-10.4c-0.6-0.7-3.4-0.4-4.1-0.3
			c-11.4,2.8-23.9,4.9-36,5.9c-9.8,0.8-20.2,0.4-29.9,2.5c-3.3,0.7-5.6,1.8-5.5,5.4c0.1,5.1,1.4,9.8,1,15c-0.5,7.7-1.6,15.3-2.1,23
			c-0.3,4.9-0.9,9.7-1.3,14.6c-1.2,13.1-1.3,26.9-4.2,39.8c-2.4,10.7-5.4,21.3-11,30.8c-5.6,9.7-13.5,17.8-21.6,25.3
			c-1,0.9-3.4,2.4-3.8,3.7c-0.3,1-0.1,1.1,0.3,2.2c0.8,2.2,2.3,4.3,3.5,6.2c3.3,5.5,6.7,11.1,9.2,17c5.1,12.1,6.2,24.8,7.8,37.7
			c5.5-1.4,11.3-1.9,16.9-3c2.7-0.5,5.4-1.2,8-2.2c1.7-0.7,3-2.1,4.5-2.9c2.9-1.3,7-1.3,10.2-2.1c0.6-0.2,1.3-0.2,1.8-0.5
			c0.4-0.2,0.9-0.2,1.2-0.4c0.3-0.3,0-1,0.2-1.1c0.7-0.4,2.5-0.7,3.7-1.1C122.3-61.6,124.9-64.2,128.3-63.8z M94-45.2
			c-4.7,1.8-10,2.2-14.8,3.3c-2.3,0.5-4.3,1-6.2,2.2c-0.7,0.4-1,0.9-2,1.2c-2.6,1-5.4,0.2-8.1,1.3c-2.7,1.1-4.8,1.9-7.8,2.4
			c-6.9,1.2-13.4,1.1-20.4,0.4c-6.5-0.7-14.3-0.2-20.5-2.7C8.6-39.4,3.8-45.5,2-51.3c-2-6.4,0.4-10.9,3.9-15.8c2.3-3.1,3.9-7,6-10.3
			c5.3-8.5,10.3-18.5,18.1-24.8c4.5-3.7,6.4-9.2,12.5-10.4c6.3-1.2,10.9-6.2,15.4-10.3c10.5-9.6,18.1-20.3,22.1-34
			c3.9-13.4,6.1-27.4,7.6-41.2c1.7-15.4,2.7-31.1,3.6-46.5c0.5-8.2,0-16.5,0-24.7c0-4.7-0.2-9.3-0.1-14c0-2.5,0.8-5.8,0.3-8.3
			c-0.4-1.8-2-3.3-2.3-5.1c-0.4-2.9,1.9-4.6,4.4-5.3c3.6-1,7.6-0.6,11.3-0.7c3.4-0.1,6.7-0.4,10.1-0.7c11.2-0.9,22.3-3,33.5-4.5
			c6-0.8,12.1-1.6,18.1-2.2c1.8-0.2,4.5-0.9,6.3-0.4c1.9,0.5,0.8-1,1.8,1.6c0.7,2,0.8,4.6,1.1,6.7c1.9,13.8-0.8,26.6-2.2,40.2
			c-1.7,16.7-0.1,33,1.8,49.6c1,9.2,1.4,18.3,1.7,27.5c0.3,8.3,1.7,16.5,2.8,24.8c2.3,17.2,4.4,34.5,4.4,51.8c0,3.9,0.2,8-0.5,11.8
			c-0.4,2.2-1.1,2.1-2.9,3.3c-4,2.4-7.7,5.2-11.4,7.9c-11,7.9-21.9,16-33.6,22.9c-5.2,3.1-10.7,5.3-16.1,8c-2.7,1.3-5.1,3.1-8,4
			c-2.9,0.9-6,1.3-9,1.9C99.8-47.7,97-46.3,94-45.2z M146.6-278c1.6-1.2,1-2,0.7-4.4c-0.7-5-1.4-9.8-1.8-14.8
			c-0.2-1.9-0.1-3.5-2-4.2c-2.2-0.8-6,0.4-8.2,0.4c0.4,5.7,0.7,11.4,1.1,17c0.1,1.3-0.4,6.2,0.5,7.2c0.7,0.8,5.3,0.2,6.6,0.2
			C144.4-277,145.8-277.3,146.6-278z M40.5-42c0.4-0.3-1.3-2.7-2.1-1.5C38.3-43.4,40.2-41.8,40.5-42z M99.2-273
			c3.7-0.3,3.2-2.1,3.1-4.9c-0.4-6.4-0.8-12.8-1.2-19.2c-1.7,0.3-2.4-0.2-3.4,1.5c-2.3,3.6-1.7,10.8-1.8,14.8
			C96.3-278,95.5-272.7,99.2-273z M111.1-298c-3.2,0.3-3.5,1.1-4.4,4.6c-1.8,6.9,1.5,13.3-0.1,20c2.1,0,4.3-0.1,6.4-0.1
			c3.2,0,3.3,0.3,3.7-3c0.8-7,1.7-15.2,0.1-22.2C115-298.4,113.1-298.2,111.1-298z M122.4-295.1c-0.6,4.3-1.1,8.6-1,13
			c0.1,1.3,0,5.5,0.9,6.5c0.8,0.8,0.3,0.4,1.6,0.5c1.3,0.2,5.8,0.3,6.9-0.4c2-1.2,0.8-10.7,0.6-13.2c-0.2-3-0.7-11.1-5.1-11.2
			C122.9-298.9,123-298.9,122.4-295.1z M151.4-303.1c-1.5,0.9-0.9,4-0.9,6c0,3.7-1.2,16,3,18.1c1.7,0.8,6.4-0.9,6.9-2.3
			c0.7-1.8-0.3-5.8-0.5-7.7c-0.3-5-0.6-9.9-0.9-14.9C157.1-303.8,152.9-304.2,151.4-303.1z M164.5-291.2c0,2.3-0.7,6.6,0.9,8.6
			c1,1.3,5.1,2.1,6.2,0.7c0.4-0.4-0.1-2.7-0.1-3.2c-0.1-4.8-0.2-9.7-0.3-14.5c0-1.1,0.2-2.4-0.4-3.4c-1.1-1.8-4.1-1.5-5.5-0.1
			C164.2-299.3,164.5-295.1,164.5-291.2z"/>
		<path class="st7" d="M589-136.5c-1.1,2.1-0.9,2.1,0.7,3.6c1.2,1.2,2.4,2.4,3.5,3.6c4.6,5,8.5,10.5,12.2,16.1
			c3.4,5.2,6.4,10.6,9.3,16.1c1.4,2.7,2.7,5.4,4.1,8.1c0.4,0.7,1.3,3.5,2.2,3.9c1.2,0.5,7.6-1.3,7.9-2.4c0.2-0.7-0.9-2.9-1.1-3.5
			c-1.3-3.4-2.9-6.6-4.6-9.8c-4.4-8.2-9.4-16.1-14.7-23.8c-4.3-6.2-8.9-12.9-14.7-17.9C591.4-140.9,590.3-138.9,589-136.5z
			 M600-151.7c3.9,2.1,7.2,8,9.7,11.5c4.7,6.3,9.2,12.7,13.4,19.3c5.4,8.4,9.7,17.5,14.2,26.4c1.6-0.9,4.7-1.7,5.1-3.6
			c0.6-2.6-1.3-7.5-2.1-10c-1.7-5.4-5.6-8.9-8.8-13.3c-4.5-6.2-7.3-13.3-11.3-19.8c-4.1-6.7-9.7-11.8-16.5-15.7
			C602.6-155.2,601.3-153.5,600-151.7z M626.1-154.4c5.6,7.5,8.8,16.1,13.5,24.1c4.6,8.1,7.4,17.2,10.6,25.9c2.7-1.1,5-2.9,7.2-4.7
			c0.8-0.6,2.8-1.8,3.2-2.7c0.6-1.4,0.2-1.5-0.5-3.3c-2.6-6.4-3.9-13.1-7-19.3c-2.2-4.3-4-8-6.8-11.8c-3.7-5.1-7.3-10.3-11.3-15.1
			c-2-2.4-4.3-4.2-6.5-6.4c-1.7-1.7-3-3.8-4.5-5.7c-0.8-1.1-4.3-5.9-6.2-5.5c-1.4,0.3-3.9,4.6-4.9,5.7
			C615.5-166.1,621.6-160.4,626.1-154.4z M629.1-185.8c4.3,3.6,8.3,6.9,11.6,11.5c4.8,6.6,9.1,13.7,13.5,20.6
			c4.1,6.5,9.1,13.3,11.8,20.5c0.9,2.5,1.5,11.5,5,11.4c1.8-0.1,6.6-5,6.6-6.8c0.1-1.8-3.2-5.6-4.1-7.2c-3.2-6-6.2-12.3-8.2-18.8
			c-1.6-5.3-3.7-12.1-2.2-17.6c2.5-9.2,15.3-10.8,23-13c1.3-0.4,7.1-1.4,7.7-2.5c0.4-0.7-0.5-3.4-0.6-4.1c-0.1-0.7,0-3.7-0.6-4.2
			c-0.9-0.8-5-0.5-6.5-0.8c-5.7-1-11.8-0.5-17.6-0.5c-7.4,0-14.7,0.1-22.1,0.1c-1.7,0-3.4,0-5.1,0c-5.2,0-10-1.7-15.2-2
			C624.1-193.7,624.7-189.5,629.1-185.8z M629.1-212.9c-0.1,3.9-0.6,3.6,3.7,4.3c9.7,1.5,19.4,1.5,29.2,0.7
			c3.5-0.3,6.9-0.5,10.4,0.1c3.9,0.7,8-0.1,12-0.2c2,0,4.4,0.3,6.4-0.2c2.4-0.6,1.1,0.2,1.5-1.5c0.1-0.5,0.1-1.5,0.1-2.1
			c0-1.2-0.1-3.1-1.1-3.7c-0.8-0.5-3.3-0.5-4.2-0.6c-2.2-0.3-4.3-0.4-6.5-0.5c-9-0.3-18.1-0.7-27.1-1c-2.9-0.1-5.9-0.3-8.8-0.3
			c-5-0.1-10.4-1.5-15.4-1C629.3-217,629.2-215,629.1-212.9z M673.9-236.3c-2.4-0.5-4.2-0.1-6.5,0.2c-3.4,0.5-6.7-0.2-10-0.5
			c-6.2-0.6-12.3-1.2-18.5-2.1c-3.8-0.6-9.7-1.1-9.8,4.2c0,4.7,4.2,4,7.8,4.6c4.2,0.7,8.4,1.2,12.7,1.7c10.4,1.1,20.8,2,31.2,2.1
			c3.7,0,7.6,0.1,11.3-0.7c3.1-0.7,2.2-3.6,2.4-6.5C687.5-234.3,680.7-235,673.9-236.3z M697.7-253.9c-0.7-2.1-4.3-1.9-6.3-1.9
			c-8.3,0.1-16.7,1.2-25.1,0.6c-7.3-0.6-14.5-0.1-21.8-0.5c-3.1-0.2-6.2-0.7-9.3-0.8c-0.9,0-3.9-0.6-4.4,0c-0.2,0.3,0,1.4,0,1.7
			c-0.3,1.7-0.5,3.7,0.7,4.5c1.7,1.3,5.9,1.1,8,1.2c3.7,0.3,7.5,0.7,11.2,0.5c7-0.3,14.2-0.2,21.2-0.8c4.2-0.3,8.1-1.1,12.3-0.4
			c4.4,0.7,8.3,1.7,12.8,1C697.2-250,698.1-252.6,697.7-253.9z M699.6-278.7c-7.4-0.1-14.8,1.7-22.2,2.2c-7.7,0.5-15.5,1.1-23.3,0.6
			c-5-0.4-10.1-0.4-15.1-0.7c-3.2-0.2-6.9-0.3-7.6,3.6c-1.5,8.5,13.7,5.5,18.4,5.4c10.7-0.4,21.4-0.3,32.1-0.5
			c3.1-0.1,5.4,0.8,8.3,1.7c3.3,1,6.5-0.8,9.4-2.2C699.6-272.1,699.6-275.4,699.6-278.7z M632.3-299.8c-0.5,0.7,0,3.4,0,4.2
			c-0.1,4.3-0.1,8.6-0.2,12.9c2.3,0,4.7,0,7,0c-0.4-6.4-0.8-12.7-1.2-19.1C636.8-301.4,632.9-300.7,632.3-299.8z M661.3-301.9
			c-0.7-2.1-2.1-5.2-4.5-3.1c-3.1,2.7-2.7,10.2-2.7,13.8c0,6.4,0.5,10.8,7.9,10.1C662.7-287.7,663.4-295.4,661.3-301.9z
			 M643.6-285.9c0.5,1.9,0.8,3.4,2.5,3.9c1.1,0.4,2.9,0.1,4,0.1c0.1-5.9,1.5-13.2,0-19c-1-3.9-4.2-2.5-6.9-1
			C643-296.6,642.4-291.1,643.6-285.9z M680-294.2c0.2,2.3,0.4,9.3,2.6,11c0.5,0.4,0.9,0.2,1.4,0.4c2,0.5,2-0.1,2.3-1.6
			c0.5-2.5-1-5.9-1.4-8.3c-0.7-4.1,0.8-8.9-3.5-11.2C679.1-301.2,679.7-297.7,680-294.2z M666.7-286.6c0.5,3.2,1.8,5.1,5.2,4.9
			c2.6-0.1,3.3-0.3,3.9-2.6c0.6-2.4,0.6-4.5,0.5-6.9c-0.3-3.8-0.7-7.5-1-11.2c-0.2-2.3-0.6-2.6-2.8-3.1c-1.9-0.4-4.1-0.3-6-0.4
			C666.4-299.6,665.7-292.9,666.7-286.6z M700.3-303.9c-1.2,7.3-0.7,2.7,0.8,4.4L700.3-303.9z M693.8-284.1
			c3.9-0.2,2.2-9.6,1.7-12.1c-0.3-1.2-0.7-7.1-1.5-7.8c-0.5-0.4-2.5,0.1-3,0.5c-1.9,1.6-1,7.5-0.8,9.8
			C690.3-291.4,690.1-284,693.8-284.1z M641.9-307.5c7.7-0.7,15.2-2.9,22.9-3.3c6.6-0.4,12.5,1.3,18.9,2.3
			c5.7,0.9,10.8-0.5,16.4-0.9c1.6-0.1,6.5-0.1,7.5,1.4c1,1.4-0.4,6.3-0.7,7.8c-2.1,10.7-0.6,21.5-1.5,32.4
			c-1.1,12.7-4.5,24.9-5.7,37.5c-1.6,16.6-1.7,32.6-0.1,49.2c0.9,9.5,1.1,20.2,3.8,29.5c0.3,1,0.8,1.8,1,2.8c0.2,1,0.1,2,0.1,3
			c0,2.5-0.7,2.3-2.6,3.6c-2,1.3-3.3,2.6-4.9,4.3c-2.2,2.4-5.1,4.2-7.6,6.3c-6.1,5.2-11.4,11.4-17.6,16.5
			c-10.9,9-21.8,17.8-32.6,26.9c-5.8,4.9-12.6,8-19.7,10.7c-8.7,3.2-18.2,6.5-27.4,7.3c-3.2,0.3-6.4-0.4-9.6-0.9
			c-2.6-0.4-5.2-0.6-7.9-0.8c-1.6-0.1-3.2-0.1-4.8-0.2c-2.5,0-2.3-0.2-3.6-2.1c-1.6-2.5-2.5-3.4-2.3-6.4c0.5-5.5,1.3-11.1,1.7-16.6
			c0.8-9.1,3.6-19.7,8.6-27.4c6-9.2,12.7-18,19.2-27c7.1-9.9,12.9-20.6,18.9-31.2c5.4-9.6,9-18.8,9.5-30c0.3-6.9,1.2-13.6,1.8-20.5
			c0.7-7.8,0.6-15.7,1.1-23.6c0.4-7.5,1.8-14.9,1.9-22.4c0.1-7.9-0.5-15.9-0.5-23.8C630.7-307.1,636.2-307,641.9-307.5z"/>
		<path class="st7" d="M255.7-121.8c-0.4,2.7-0.6,4.2,1.4,6.2c1.7,1.5,3.4,2.9,5.3,4.3c3.5,2.6,7,5.1,9.7,8.6c3,3.8,5.4,8.1,8,12.2
			c1.3,2.1,4.2,7.6,7,7.5c2.4-0.1,6.2-3.4,8.1-4.7c5.5-3.7,7-7.1,7.5-13.6c-3.3,0.4-7,1.5-10.4,1.4c-0.2,0-1.3,0.3-1.5,0.2
			c-0.8-0.5-0.4-4.1-0.3-5c0.3-4,1.9-7.6,3.1-11.4c-3.8-0.2-7.5,0-11.3-0.1c-1.9-0.1-7.8,0-9-2.1c-0.8-1.5,0.6-6.8,0.7-8.5
			c0.1-1.3,1.5-7.5,0.7-8.5c-0.9-1-6.7,0.4-7.9,0.6c-2.8,0.4-5.5,1-8.3,1.4C258-129.3,256.3-125.7,255.7-121.8z M274.3-141.5
			c0.9-0.1,4.5-0.5,5.1,0.1c0.8,0.8,0.4,5.8,0.4,7c0,2.1-0.1,4.2-0.2,6.3c0,1.2-0.1,2.3-0.1,3.5c0,1.9-0.4,1.8,1.3,2.4
			c3,1,7.6,0.5,10.7,0.3c1.9-0.1,6-1.4,7,0.7c0.5,1.1-0.4,3.6-0.6,4.7c-0.7,3.5-1.3,7-1.8,10.5c2.2,0,4.3-0.4,6.4-1
			c0.9-0.3,2.4-1.2,3.4-1c2.8,0.6,1.9,6,1.8,8.1c3.4-1,6.4-4,8.9-6.3c1.8-1.6,3.8-2.8,4.2-4.9c0.4-2.2-0.4-5.2-0.6-7.4
			c-0.2-2.3-0.3-4.5-0.5-6.8c-0.1-1.5-0.3-3.5-1.4-4.6c-2.2-2.3-6.5,0.5-9.4,0.5c-9.4,0-2.5-14.3-2.2-19c-4.7,0-11.7,3.7-15.9,0.5
			c-2.9-2.2-3-7-3-10.3c0-1.4,1-5.9-0.4-7c-1.5-1.2-5.9,1.6-7.2,2.1c-3.5,1.5-8,2.4-10,5.9c-1.7,2.9-2.8,6.2-4.1,9.3
			c-0.8,1.9-3.1,5.4-3,7.5C266.5-138.6,270.8-141.2,274.3-141.5z M279.8-183.2c-2.2,4.6-3.8,11.3-4.3,16.4
			c4.6-1.3,15.1-8.5,17.5-0.8c1.5,4.8-2.8,14.2,5.4,14.7c3.4,0.2,8.8-2.9,11.9-1c2,1.2,1.7,4,1.4,5.9c-0.6,4.3-2,8-1.9,12.4
			c1.8-0.3,3.5-0.6,5.3-0.8c1.9-0.3,4.9-1.4,6.7-1.1c4.6,0.8,4.1,18.1,4.1,22.2c2.4-1,6.4-4,6.8-6.8c0.4-2.4-1.9-5-2.9-6.9
			c-2.5-4.7-3.6-10-6.3-14.5c-3.3-5.5-3.8-14-4.6-20.2c-0.6-4.9-1.7-11.8,3.3-14.7c4.2-2.5,8.8-3.1,12.6-6.5
			c-3.8-3.1-7.3-4.9-11-1.1c-2.8,2.9-5.8,7.4-10.5,6.3c-4.7-1-6.4-6.2-10.3-8.1c-1.9-0.9-1.7-0.7-3.4,0.9c-1.1,1.1-2.1,2.2-3.1,3.4
			c-2.1,2.4-4.2,4.8-6.9,6.5C286.3-179,283-181.1,279.8-183.2z M357.4-192.6c0.1,0.3-2.7-0.3-2.8-0.1c0,0.4,0.2,0.7,0.5,0.9
			C355.5-191.4,357.6-191.8,357.4-192.6z M328.3-215.7c-2.7,2.3-4.6,5.4-7,8.1c-1.4,1.6-2,2.6-4.1,2.1c-1.4-0.3-2.7-1.4-3.7-2.3
			c-2.3-1.8-4.8-5.6-7.7-6.5c-1.8-0.6-2.3,0.4-3.8,1.7c-1.3,1.2-2.5,2.5-3.8,3.7c-1.2,1.2-2.5,2.4-3.8,3.5c-1.6,1.3-2.2,1.9-4.1,1.2
			c-2.9-1.1-5-3.6-8-4.7c0.1,4.2,0,8.3-0.2,12.5c-0.2,3.4-0.6,6.3,2,8.9c1.1,1,2.5,2,3.8,2.6c1.8,0.9,2.1,1,3.9-0.2
			c2.5-1.7,3.9-4.2,5.8-6.5c1.2-1.4,3.5-4.2,5.6-4.1c2,0.1,4.2,3.6,5.6,5.1c1.8,1.8,4.5,4.4,7.2,4.6c1.6,0.1,1.6-0.3,2.7-1.5
			c0.8-1,1.7-2,2.6-3c3.4-3.5,7.7-5.7,12.5-3.3c2.5,1.3,4.3,4.4,7.1,4.9c3.6,0.7,6.8-3.1,9.1-5.3c2.3-2.2,5.9-4.2,6.4-7.3
			c0.6-3.9,0.9-13.1-1.7-16.4c-1.1-1.4-1.7-0.9-3.2,0.4c-0.9,0.8-1.7,1.8-2.5,2.8c-1.8,2.3-3.5,4.7-6.1,6.2
			C339.1-210.5,332.7-219.5,328.3-215.7z M291.6-235.5c-0.8,1-2.1,3.5-3.3,4.1c-1.9,0.9-4.2-0.8-5.8-1.8c-0.8,6.7-1.2,15.6,4.7,20.2
			c7.8,6,9.7-4.7,14.8-8.1c3.3-2.1,7,0.8,9.5,3.1c1.6,1.4,4.9,6,6.8,5.6c2.9-0.5,5.3-6,7-8.1c0.8-1,2.3-3,3.7-3.3
			c1.3-0.3,4.2,1.2,5.4,1.8c2.8,1.3,5.2,3.3,7.9,4.9c2.2,1.3,2.4,0.5,4.2-1.2c1.2-1.1,2.4-2.2,3.6-3.3c2.1-1.8,3.1-2.2,3.1-5
			c0-1.7-0.1-3.5-0.2-5.2c-0.3-3.6-0.7-7.4-2.3-10.7c-1-2.2-1.4-2.8-3.5-1.2c-1.3,1-2.4,2.2-3.7,3.3c-1.3,1.1-2.5,2.3-4.1,3.1
			c-1.9,1.1-2.1,1-3.5-0.4c-2.4-2.3-3.8-6.3-6.8-7.9c-2.4-1.2-4,1.4-5.6,3.3c-2.4,3.1-5.7,10.4-10.5,8.3c-5.4-2.3-8.8-8-14.4-10.2
			C296.3-241.3,293.9-238.4,291.6-235.5z M297.6-264c-1.7-0.6-2.1-2.6-4-2.7c-3-0.2-5.2,3.5-7.8,3.8c-0.9,0.1-3.1-1.1-4.2-1.3
			c-0.7,5.3-0.6,11.2,0.1,16.6c0.3,2.2,0.7,4.1,2.2,5.8c0.6,0.7,1.5,1.6,2.2,2.1c1.4,0.9,1.4,0.9,2.9-0.3c1.7-1.5,2.9-3.2,3.9-5.2
			c0.9-1.7,1.7-5.4,3.4-6c4-1.3,9.7,3.7,12.5,5.9c1.4,1.1,3.8,3.8,5.7,4.1c1.8,0.2,3.6-1.9,4.7-3.3c2.3-3.1,4.4-8.2,8.9-8.7
			c4.7-0.6,5.6,3.7,8,6.3c1.6,1.7,3.3,3,5.2,1.6c0.6-0.5,1-1.1,1.5-1.7c0.5-0.6,1-1.1,1.6-1.6c0.6-0.5,1.4-1,2-1.5
			c1.8-1.3,2.5-1.3,2.5-3.5c-0.2-6.2-3-12.6-3.7-18.8c-6,3.8-14.1,4.6-21,5.2c-7.4,0.6-14.9,0.8-22.3,0
			C300.4-265.5,299.7-263.3,297.6-264z M282.8-287.3c-0.1-4,1.1-11.1-1.4-14.5c-2.9,7.7-2,17.4-2.1,25.5c0,4.1,0.1,4.9,4,5.5
			C283.1-276.3,282.9-281.8,282.8-287.3z M343-305.6c-2.7,4.1-2,11.4-2.1,16c-0.1,4.4-1.3,10.8,3.1,13.3
			C343.7-286.1,343.3-295.8,343-305.6z M303.1-281.5c0.1-3.9-0.1-7.9-0.4-11.8c-0.3-3.3-0.6-6.7-1.3-9.9c-0.5-1.9-0.8-2.7-2.9-2.1
			c-4.5,1.3-1.7,11.9-1.3,15.1c0.3,3.1,0.6,6.1,1.1,9.2c0.3,1.7,0.3,4.9,1.1,6.4c1,1.8,0.5,0.6,2.4,1.4
			C303.2-275.4,303-279.2,303.1-281.5z M336.9-280.2c-0.2-2.9-0.3-5.8-0.4-8.7c-0.1-3.3,1.2-12.4-1.4-14.6c-5.6-4.7-4.8,6.7-4.6,9
			c0.6,6,3.3,14.1,1.4,20C336.1-274.8,337.2-276.3,336.9-280.2z M313.5-297.3c-0.1-1.3-0.2-6.6-1.5-7.4c-0.6-0.4-4.6,0.1-4.9,0.4
			c-0.5,0.6,0.1,3.9,0.1,4.6c0.1,2.8,0.2,5.7,0.3,8.5c0.2,5-0.7,11.3,0.5,16.1c0.4,1.7-0.4,0.9,1.4,1.4c2.2,0.6,5.1,0.1,7.5,0.2
			c-0.8-5.1-2.4-10.1-2.8-15.3C313.7-291.6,313.7-294.5,313.5-297.3z M287.4-299.3c-0.4,9.4,1,18.8,1.2,28.2c1.4-0.2,4.5,0.1,5.5-1
			c1.1-1.2,0.3-4.1,0.1-5.5c-1.1-8.7-1.9-17.4-3.6-26C287.8-302.8,287.5-302.6,287.4-299.3z M318.8-304.8c-0.9,0.8-0.6,5.6-0.6,6.7
			c0,2.4,0.2,4.9,0.4,7.3c0.5,4.5,1.4,9.1,2.6,13.5c0.4,1.6,0.5,3.2,1.8,3.7c0.4,0.2,3.2,0.2,3.5-0.1c2-1.4,0.1-11.8-0.1-14
			c-0.5-5.7-1.1-11.5-1.8-17.2C323.7-304.8,319.6-305.5,318.8-304.8z M349-286.3c0.2,12.4,3.4,24,5.5,36.2c2.2,12.3,3.9,24.6,5.6,37
			c1.5,11,3,22.1,3.8,33.2c0.4,5.1,0.5,10.2,1.1,15.3c0.4,3.7,1.4,7.9,0.3,11.6c-2.2,7.3-9.4,13.6-14.4,19.2
			c-6.1,6.9-12.1,13.9-18.4,20.6c-3.4,3.6-7.5,6.8-11.3,10.1c-7.7,6.7-15.3,13.4-23,20.1c-7.3,6.4-15.4,10.8-23.6,16.1
			c-5.4,3.5-11.2,6.7-17.4,8.9c-5,1.7-12.7,3.7-17.1-0.5c-1.4-1.4-1.9-3.5-3-5.4c-0.8-1.4-1.9-2.8-2.4-4.4c-0.9-2.6-0.8-6-0.9-8.7
			c-0.3-4.6-0.1-9.2,0.9-13.7c1.5-6.7,5.3-12,7.9-18.2c2.5-5.7,4.6-11.6,6.9-17.4c1.8-4.5,5.1-7.2,7.4-11.3
			c2.8-5.1,5.2-10.5,7.5-15.9c5.4-12.3,10.7-25.3,13.2-38.6c1-5.4,0.4-10.6,0.2-16.1c-0.2-7.2-0.1-14.5-0.3-21.8
			c-0.2-5.2-2.7-11.2-1.9-16.2c0.3-1.6,1-2.8,1.1-4.5c0.4-6.6-1.5-12.6-2.1-19c-0.6-6.4-0.3-12.8-0.1-19.2
			c0.1-5.2-0.4-13.4,3.4-17.7c2.3-2.5,5.9-2.2,9-2.3c4.8-0.2,9.4-1.3,14.2-1.6c7-0.4,14-0.3,21-0.3c8.9,0.1,17.7,1.7,26.5,1.4
			C349.5-301.8,348.9-294,349-286.3z"/>
		<path class="st7" d="M134.7-486.6c5.4,0.1,10.7-0.1,15.9-1.6c9.1-2.7,12.1-11.3,10.9-20.3c-1.5-11.8-10.6-22.3-18.8-30.3
			c-1-1-2-2.2-3.2-2.9c-1.5-1-1.5-1-3.1-0.1c-2.3,1.2-4.2,3-5.7,5c-3.9,5-6,11.4-8.3,17.2c-3.8,9.9-7.2,20.8-3.3,31.3
			C123.9-486.5,129.8-486.7,134.7-486.6z M117.3-521c2.1-5.3,4.6-10.4,7.4-15.4c2.3-4.2,5.9-7.2,8.5-11.1c-2.2-1.3-4.5-3.2-6.9-4.1
			c-2-0.7-2.8,0.3-4.9,1.4c-0.7,0.4-3.1,1.3-3.5,2c-0.6,1,0.2,3.9,0.6,5c0.5,1.2,1.4,2.1,1.8,3.3c0.8,2.2-0.1,3.8-1.8,5.4
			c-1.9,1.8-4.6,2.3-6.7,3.8c-1.8,1.3-2.2,1.1-1.1,3c1,1.8,2.8,3.3,3.7,5.2c0.9,2.2,0.4,2.8-1.7,3.5c-3.4,1.2-6.5,2-9.4,4.5
			c2.5,2.8,3.8,5.3,0.9,8.1c-0.9,0.9-3.3,2.1-3.6,3.3c-0.4,1.3,1.5,2.8,1.9,4.3c0.5,1.8-0.6,3.4-0.1,5.2c0.9,3.3,6.8,3.6,9.7,3.8
			C112.1-500.4,113.4-510.9,117.3-521z M12.5-539c0.4,5.5,2.3,10,6.4,13.9c3.8,3.6,8.3,5.6,13.1,7.6c2.2,0.9,4.3,2.1,6.6,3.1
			c0.4,0.2,7,2.9,6.5,1.2c0.3,0.7,0.8-2.9,0.9-3.2c0.4-3.3,0.5-6.7,0.6-10c0.2-6.6,1.1-14.3-0.4-20.8c-1.4-6.3-10.6-6.4-15.8-6.5
			c-5.6-0.1-12.7-0.3-18.1,1.5C10.3-548.6,12.2-543,12.5-539z M105.6-546c-0.2,3.9-3.4,3.7-6.1,4.7c-2.2,0.9-2.5,2.2-3.9,3.6
			c-1,1-4.3,1.6-4.7,2.7c-0.5,1.1,1.9,4.2,2.5,5.2c0.8,1.4,2.4,3.6,2.2,5.3c-0.2,1.6-2.4,3-3.7,4.1c-3.2,2.6-6.7,4.8-9.9,7.3
			c-1.5,1.2-3.7,2.3-3.7,4.2c0,1.6,1.3,3.8,1.9,5.1c1.4,2.9,3.3,6,6,7.8c2,1.3,4.4,1.9,6.8,2.2c2.2,0.3,4.5,0.9,4.6-1.4
			c0.1-2.8-2.7-5-3.4-7.6c-0.9-3.3,2-2.9,3.9-5c1-1.2,1-0.4,0.9-2c0-1.6-1.4-3.1-1.6-4.7c-0.4-2.9,1.4-3.7,3.6-5
			c1.2-0.7,2.8-1.4,3.8-2.3c1.4-1.2,1.3-0.5,1-2.2c-0.4-2.8-2.7-5.2-1.4-8.1c0.9-1.9,3.1-2.9,4.9-3.7c1-0.5,4.1-1.1,4.7-2.1
			c0.4-0.6-1.4-5.6-1.6-6.5c-0.4-1.8-1.1-4.4-0.4-6.2c1-2.7,4.8-2.9,6.9-4.4c-2.4-1.8-5.2-3.8-8.4-3.8c-3,0-6.1,1.6-8.8,2.6
			C102.3-553,105.8-549.4,105.6-546z M82.6-557.8c-0.6,1.9,0.2,1.2-1.4,1.6c-1.8,0.6-4.2-0.5-6,0.1c-1.6,0.5-0.8-0.2-1.4,1.6
			c-0.4,1.4,0.1,3.9-0.7,5c-1,1.4-2.5,1.1-3.9,1.2c-2.5,0.1-2.4,0.4-3.2,3c-0.4,1.4-0.7,2.5-2.4,3c-1.1,0.3-2.5-0.2-3.6-0.2
			c-2.4,0.1-5.1,0.8-7,2.3c-2.1,1.7-2,2.4-1.9,4.8c0.2,6.8,0.4,13.7,0.7,20.5c0,1.2-0.5,4.7,0.2,5.7c0.6,0.8,5.1,2.6,6.4,2.5
			c1.3-0.1,2.6-1.2,3.7-1.8c1.8-1,4.9-2,6.2-3.6c1.1-1.3,0.7-1.9,0.3-3.7c-0.3-1.1-0.5-2.1-0.8-3.2c-0.5-1.8-0.9-3.6-1.4-5.4
			c-1-4.1-1.8-6.9,2.5-8.7c2.8-1.2,5.7-2.1,8.4-3.3c1.1-0.5,2.8-1,3.7-1.7c1-0.9,0.8-0.2,0.6-1.2c0,0.2-1.2-1.5-1.3-1.8
			c-1.2-2.5-2.9-7.7-1.7-10.4c1.2-2.6,5.4-3.7,7.7-4.8c1.9-0.8,6.5-2.2,6.9-4.7c0.9-5-7.8-1.9-9.7-1.6C83.1-561,83-559.3,82.6-557.8
			z M29.1-560.6c-3.2-3.3-6.4-6.7-9.7-10c-2.1-2.2-1.9-2.8-4.4-0.3c-3.1,3.1-4.8,7.1-4.5,11.5C16.7-558.2,23-559.1,29.1-560.6z
			 M47.5-559c-1.6-1-2.4-2.7-3.4-4.2c-0.5-0.7-1.7-2.9-2.5-3.1c-1.1-0.2-3.9,2.5-4.6,3.3c-1.3,1.4-2.1,2.1-0.7,3.2
			c1.2,0.9,3.8,0.7,5.2,0.9c3.9,0.6,8,1.9,9.1,6.1c0.4,1.4,1.4,6,4,4.3c1.3-0.8,0.7-5,2-5.7c1.8-1,4.9,2.4,6.3,3
			c0.3-1.7,0.3-4.2,1.6-4.9c1.2-0.6,3,0.3,4.1-0.5c1-0.8,1.2-3.6,2.8-4.5c1.2-0.7,2.9-0.4,4.3-1.2c-1.2-1.4-2.7-2.8-4.1-4.1
			c-1.5-1.3-5-5.2-7.1-5.3c-2.1-0.1-3,3.6-3.7,5.6c-1.1,2.8-2.4,5.3-4.4,7.6C53.8-558,50-557.5,47.5-559z M26.9-591
			c0.8-0.6,3.3-2.7,4.5-2.3c1.2,0.4,2.6,3.8,3.2,4.8c1.8,3,4.4,8.5,7.6,10.2c1.5,0.8,0.9,1,2.3,0c0.7-0.5,1.2-1.6,1.7-2.3
			c1.1-1.6,2-3.2,3.1-4.7c1-1.4,2.5-3.7,4.3-4.3c1.9-0.7,3.1,0.8,4.5,2.2c1.3,1.4,2.4,3,3.8,4.3c1.9,1.8,2.2,1.3,3.3-0.8
			c0.9-1.6,1.4-4.8,2.7-6c0.9-0.8,3.2-0.5,4.4,0.4c1.8,1.4,1.7,2.5,4.5,3.2c-0.8-3.9-2.1-7.6-3.2-11.4c-0.8-3-0.4-3.2-3.4-3.1
			c-1.2,0.1-3.7,0.7-4.8,0.3c-1.6-0.7-3.4-4.7-4.7-6c-1.2-1.2-0.4-1.2-2.4-0.9c-0.5,0.1-1,0.3-1.4,0.5c-0.9,0.4-1.8,1-2.6,1.6
			c-1.4,1.1-2.4,2.5-3.7,3.6c-1.6,1.3-4.9,3.5-6.8,2.7c-1.8-0.7-3.9-4.2-5.3-5.5c-0.8-0.8-1.7-1.9-2.8-2.4c-1.7-0.8-1.5-0.7-3.1,0.6
			c-1.8,1.4-3.7,3-5.9,3.8c-2.6,0.9-4,0-5.6-2c-2-2.4-3.7-4.6-6.7-5.7c-4.8-1.7-7.4,6.7-7.8,10.5c-0.4,3.9,0.4,8.2,2.4,11.6
			c1.8,3,5.3,4.8,8.2,6.4C21-584.3,23.4-588.2,26.9-591z M22.2-632.4c5.6-1,10.2,11,13,14.4c2.7-2.6,4.7-5.8,7.1-8.7
			c0.8-1,2.3-3.1,3.6-3.6c1.7-0.6,3.4,0.8,4.9,2c2.8,2.3,4.6,5.5,7.3,8c2.1,1.9,3,0.4,4.9-1.3c1.7-1.5,2.9-3.1,4.3-4.9
			c1.3-1.7,3.5-2.2,4.8-3.7c1-1.2,0.8-1.6,0.8-3.4c0-1.1,0.6-4.2,0-5.2c-1.2-1.9-5.7-1.3-7.3-0.3c-3.9,2.5-4.6,6.3-9.8,3
			c-2.3-1.4-5-4.5-7.9-4.5c-2.3,0-5.9,4.9-8.2,6.2c-8.5,4.9-9.3-5.4-16.1-6.9c-3.8-0.8-11.2,0.2-14.4,2.6c-5.5,4.1,0.6,10.3,3,14.2
			C16.1-625.9,18.2-631.7,22.2-632.4z M7.2-644.8c5.2-0.7,10.8-2.9,16.1-2.8c2.8,0.1,5,2.2,7.1,4c1.4,1.2,2.7,2.4,4.2,3.5
			c2,1.4,2.6,0.9,4.6-0.6c1.7-1.3,3.3-2.7,4.7-4.3c1.8-1.9,2.9-2.1,5.5-1.6c1.7,0.3,3.4,0.9,4.9,1.8c1.2,0.8,2.3,2.6,3.5,3.1
			c1.5,0.7,2.2,0.2,3.7-1c1-0.8,1.8-1.7,2.8-2.5c2.6-2.1,5.4-2.2,8.6-1.3c-0.1-3.4,1-8.9-3.5-7.2c-6.6,2.5-14,2.7-21,3.3
			c-9.4,0.8-18.6-0.1-28,0c-2.4,0-4.9,1.3-7.2,0.8c-2.1-0.5-3.3-1.5-5.8-1.4C7.2-648.9,7.2-646.9,7.2-644.8z M40.5-676.6
			c-6.4,0.4-7.1,3.8-7.2,9.8c-0.1,6.3,0.8,11.3,8.2,11.1C40.4-662.6,40.4-669.6,40.5-676.6z M51.7-656.1c-0.3-3.2-0.5-6.5-0.8-9.7
			c-0.2-2.2-0.3-4.4-0.5-6.6c-0.1-0.7,0.2-3.2-0.3-3.8c-1.4-1.6-4.2-0.1-4.8,1.4c-2,5-0.8,11.8,0.6,16.8
			C46.9-654.9,48.6-656,51.7-656.1z M69.8-677c-3.5,4.5-3.6,13.2,0.4,17.4C73.2-663.9,73.4-673.2,69.8-677z M11.6-657.2
			c1.1-3.6-0.2-7.2-0.1-10.8c0.1-3.5,1.9-7-0.2-10.2c-2.4,1.8-2.3,4.3-2.7,7.4c-0.5,3.8-2,9.2-0.3,12.8
			C9.4-657.8,10.5-657.5,11.6-657.2z M20.9-656.2c0-3.3-0.4-6.7-0.2-10c0.1-2.2,0.6-4.5,0.4-6.7c-0.1-0.8-0.2-3.9-0.7-4.4
			c-1.6-1.4-3.4,0.7-3.8,2c-2.1,5.3-1.7,13.7,0.3,18.9C18.2-656.4,19.5-656.3,20.9-656.2z M57.8-676.2c-2.9,0.2-2.3,1.1-2.7,4.1
			c-0.7,5.6-0.5,8.9,2.6,13.3c1.1,1.6,1,1.3,3.3,1.1c3-0.3,3.7,0.1,3.3-3.3c-0.3-2.4-1.1-4.6-1.3-7c-0.2-2.8,0.8-5.8-0.1-8.6
			C61.3-676.4,59.6-676.3,57.8-676.2z M29.7-668.7c0.1-2,1.2-8.8-1-9.2c-2.8-0.4-3.5,7.2-3.8,9.4c-0.6,4.3-1,11.3,4.5,12.5
			C29.5-660.2,29.6-664.4,29.7-668.7z M75.9-673.4c0.3,13.9,1,27.8,1,41.7c0,14.1-0.3,27.9,4.3,41.4c3.4,9.8,14,16,22.4,21.1
			c9.8,5.9,20.3,10.7,29.9,16.8c5.2,3.3,9.1,7.5,13.4,11.9c5.2,5.4,10.2,11.1,14.2,17.5c3.2,5.2,5.6,10.8,5.4,17
			c-0.1,5.5-1.5,12.7-4.6,17.3c-6.2,9.2-23.5,7.9-33,7c-7.1-0.6-14.1-1.8-21-3.3c-6.4-1.3-13.3-2.4-19.4-4.6c-3.1-1.1-5.8-3-8.9-4
			c-3.5-1.1-7.1-1.8-10.6-3.1c-6.9-2.5-13.2-6.1-19.9-8.9c-8.4-3.5-17.3-5.6-25.5-9.9c-4.4-2.3-8.8-5.1-11.8-9.1
			c-2.8-3.9-3.2-9.2-3.9-13.8c-1.9-13.3-2.5-26.8-3.7-40.2c-0.5-6.5-1.1-13.1-1.6-19.6c-0.3-3.2-0.7-6.4-1.2-9.6
			c-0.9-7,1-14.1,0.9-21.2c-0.1-11,0.4-21.9,1.5-32.8c0.6-5.9,0.7-11.8,1.5-17.7c0.4-3,0.7-5.4,4.2-4.9c5.2,0.7,10.1,2.4,15.4,2.9
			c7.4,0.7,14.8,0.8,22.2,0.5c7.2-0.2,14.4-0.8,21.6-1.6c1.7-0.2,5.8-1.4,7.2,0.2c0.9,1.1,0.1,3.1-0.1,4.3
			C75.8-676.6,75.9-675,75.9-673.4z"/>
		<path class="st1" d="M402-527.9c3.3,1.1,5.9,6.2,8.3,8.4c3.5,3.2,6.2,7.6,8.2,11.9c2.4,5,4.4,10.4,6.6,15.5
			c2.1,4.9,2.6,10.4,5.9,14.8c2.4,3.2,6.4,4.8,10.1,2.7c3.2-1.8,5-6.9,2.7-10.1c-3.4-4.6-4.2-11.2-6.7-16.4
			c-2.9-6.1-4.9-12.2-8.3-18c-1.4-2.4-2.4-4.6-4.2-6.8c-1.7-2.1-3.7-3.5-5.4-5.4c-2.1-2.2-3.5-4.6-6-6.6c-2.4-1.9-4.2-3.3-7.1-4.3
			C396.9-545.2,393-530.9,402-527.9L402-527.9z"/>
		<path class="st1" d="M422.7-547.1c2.6,3.2,4.7,6.7,7.1,10.1c1.9,2.6,4.2,4.1,6.5,6.2c2.7,2.4,4.7,5.5,7.3,8.1
			c2.5,2.4,5.2,4.4,7,7.4c0.9,1.6,1.8,3.1,3.1,4.5c0.5,0.6,3.2,3.8,1.5,0.9c1.3,2.3,2.3,5.2,3.3,7.6c2.5,5.9,3.6,13.9,8.2,18.6
			c6.7,6.8,17.2-3.7,10.5-10.5c-1.2-1.3-2.1-6.6-2.8-8.4c-1.2-3-2.5-6.1-3.9-9.1c-2.4-5.1-5.7-9.6-9.2-14.2
			c-2.1-2.8-4.7-4.9-7.2-7.3c-2.6-2.5-4.7-5.6-7.3-8.1c-2.1-2-4.2-3.2-5.8-5.6c-2.5-3.7-5-7.2-7.8-10.6c-2.6-3.1-7.8-2.6-10.5,0
			C419.6-554.6,420.2-550.2,422.7-547.1L422.7-547.1z"/>
		<path class="st1" d="M438.6-564.3c3.4,0,6.8,0,10.2,0c3,0,4.5,0.9,7.4,1.9c5.9,2,12.4,1.4,18.4,2.3c6.2,1,12.4-0.1,18.6,0.4
			c6.9,0.6,13.7,0.7,20.7,0.7c9.5,0,9.6-14.8,0-14.8c-6.7,0-13.2,0-19.8-0.6c-6.3-0.6-12.5,0.4-18.8-0.6c-5.8-0.9-11.6-0.3-17.1-2.6
			c-6.1-2.5-13.1-1.6-19.6-1.6C429.1-579.1,429.1-564.3,438.6-564.3L438.6-564.3z"/>
		<path class="st1" d="M437.3-621.6c2.5-0.1,3.8,0.6,6.2,1.6c3,1.2,6.2,1.8,9.3,2.5c2.9,0.7,5.8,0.6,8.7,1.2
			c3.3,0.7,6.3,0.9,9.7,0.8c6.6-0.1,13.3,0,19.9,0c3,0,6.1,0.3,9.1,0c3-0.3,5.5-1.7,8.1-3c8.6-4.1,1.1-16.9-7.5-12.8
			c-4.4,2.1-10.4,1-15.2,1c-5.9,0-12.1,0.6-18,0.1c-5-0.4-10.2-1.6-15.2-2.6c-5.4-1-9.6-3.9-15.3-3.6
			C427.8-636,427.8-621.1,437.3-621.6L437.3-621.6z"/>
		<path class="st1" d="M438-591.6c2.8,0.2,6.6,3,10.1,3.4c4,0.4,7.8,0.8,11.7,1.5c7.5,1.3,14.7,2.8,22.3,3.6
			c7.4,0.8,16.5,1.2,23.6-1.1c5.2-1.6,12-3.3,13.4-9.5c2.1-9.3-12.2-13.3-14.3-3.9c0.8-3.8,2.6-2.2,0.5-1.9
			c-0.9,0.1-1.9,0.6-2.8,0.9c-2.6,0.8-4.8,1-7.6,1c-6.7,0-13.2-0.3-19.8-1.1c-6.5-0.8-13-2.8-19.6-3.6c-3-0.3-5.8-0.4-8.6-1.3
			c-3.1-1.1-5.5-2.4-8.9-2.6C428.4-607,428.5-592.2,438-591.6L438-591.6z"/>
		<path class="st1" d="M414-293.6c9.9,0,20.2,1,30-0.4c4.4-0.6,9.2-0.2,13.7-0.2c2,0,4.1,0,6.1-0.1c0.8,0,1.7,0,2.5-0.1
			c0.4,0,0.8,0,1.2,0c0.6,0.3,0.6,0.1-0.2-0.5c-0.7-0.7-0.9-0.9-0.6-0.6c0.7,0.6,1.3-0.1,1.7-2.1c2.5-3.4,1.8-2-0.1-1.9
			c-2,0.1-4,0.9-5.9,1.1c-4.9,0.5-10,0.1-14.9,0.1c-11,0-21.9,0-32.9,0c-9.5,0-9.6,14.8,0,14.8c14,0,27.9,0,41.9,0
			c9.9,0,28.5-0.7,24.6-15.4c-3.3-12.6-18.2-10.1-28.1-10.1c-3,0-6.1-0.2-9.1,0c-3,0.2-5.3,0.9-8.3,0.8c-7.2-0.4-14.5-0.1-21.7-0.1
			C404.4-308.5,404.4-293.6,414-293.6L414-293.6z"/>
		<path class="st4" d="M390.4-518.2c3.9,2.7,6.1,7.1,8.2,11.1c2.4,4.4,5.8,7.7,7.9,12.4c1.9,4.3,3.4,8.4,4.9,12.8
			c1.5,4.2,2.5,8.2,5.5,11.6c6.4,7.3,16.9-3.4,10.6-10.6c-0.8-0.9-1-3.1-1.3-4.2c-0.8-2.4-1.5-4.8-2.3-7.2
			c-1.4-4.6-4.1-9.5-6.4-13.7c-1.2-2.3-2.6-4.3-4.2-6.3c-1.7-2.1-2.4-4.5-3.8-6.8c-2.8-4.5-7.1-9-11.5-12
			C389.9-536.6,382.4-523.7,390.4-518.2L390.4-518.2z"/>
		<path class="st4" d="M412.7-549c-0.1,0.2-0.2,0.3-0.4,0.5c-1.5,2-1.3,5.5,0,7.6c2.9,4.6,7.2,8.4,10.5,12.8c3.3,4.3,6.2,9.3,8.8,14
			c1.3,2.4,2.2,4.9,3.4,7.3c1.1,2.2,2.8,3.8,4.1,5.8c1.7,2.6,2.4,6,3.9,8.8c1.5,2.7,2.8,5.4,4.1,8.2c1.7,3.7,7,4.5,10.3,2.7
			c3.8-2.2,4.3-6.6,2.7-10.3c-2.4-5.4-4.8-11.1-7.6-16.2c-1.2-2.2-2.9-3.8-4.2-5.9c-1.5-2.6-2.4-5.4-3.8-8
			c-2.5-4.6-5.4-9.5-8.5-13.7c-3.3-4.5-7.8-8.5-10.8-13.1c0,2.5,0,5,0,7.6c0.1-0.2,0.2-0.3,0.4-0.5c2.5-3.2,0.5-8.4-2.7-10.3
			C419.1-554,415.1-552.2,412.7-549L412.7-549z"/>
		<path class="st4" d="M489.2-497.6c-0.6-5.4-3.1-10.6-4.6-15.9c-1.5-5.7-2.4-11.5-3.7-17.2c-1.4-6.1-2.7-12.2-5.1-18.1
			c-2.6-6.3-6.7-7.1-12.7-8.7c-3-0.8-5.4,0.1-7,1.8c-5.5-4.9-12-10.3-19.5-10.6c-9.7-0.4-9.6,14.6,0,15c2.3,0.1,5.5,3.7,7.3,5.1
			c2.3,1.8,4.4,3.9,6.7,5.7c4.5,3.6,8.1,8.2,10.3,13.6c1.1,2.7,2.5,5.4,3.8,8c1.2,2.4,2,5,3.2,7.5c2.6,5.8,4.6,11.8,7.3,17.5
			C478.3-487.2,490-490.2,489.2-497.6z"/>
		<path class="st4" d="M435.6-578.2c6.4-0.2,12.6,2.8,18.9,3.8c6.5,1,13,1.2,19.4,1.7c3,0.3,6,1.2,9.1,1.4c3.9,0.3,7.8,0,11.7,0
			c3.3,0,6.6,0.1,9.9,0.1c1.6,0,3.3,0,4.9-0.4c1.8-0.5,3-1.9,4.6-2.4c9.1-3,5.2-17.5-4-14.5c-2.4,0.8-4.2,2.2-6.4,3.2
			c1.3-0.3,2.5-0.7,3.8-1c-6.3,0.8-13.3,0.1-19.7,0.1c-5.7,0-11.1-1.6-16.8-2c-6-0.4-11.8-0.1-17.8-1.6c-5.9-1.4-11.4-3.6-17.6-3.4
			C426-592.9,426-577.9,435.6-578.2L435.6-578.2z"/>
		<path class="st4" d="M439.1-607c0.4-0.1,0.8-0.2,1.2-0.2c-1.3,0-2.7,0-4,0c6.1,1.2,12.3,2,18.4,3.6c5.8,1.5,12,2,18,1.9
			c6.9,0,13.8-0.1,20.8-0.1c6.8,0,13.1,0.6,19.4-2.5c8.7-4.3,1.1-17.2-7.6-13c-2.1,1-5,0.5-7.3,0.5c-3.3,0-6.6,0-9.9,0
			c-6.3,0-12.8,0.4-19.1-0.1c-2.4-0.2-5.1,0-7.4-0.4c-2.4-0.4-4.9-1.3-7.4-1.8c-6.5-1.2-12.4-3.7-19.1-2.5
			C425.7-619.7,429.7-605.2,439.1-607L439.1-607z"/>
		<path class="st4" d="M510.4-652.5c-2.6-2.3-5.5-2.3-8.7-2.2c-7.2,0.2-14.4,0-21.6,0c-7.1,0-14.1-1.8-21.2-1.4
			c-6.7,0.3-13.1-1.4-19.7-2.1c-6.7-0.6-8.7,6.4-6.1,11.1c-0.6,1.1-0.9,2.3-0.9,3.4c0,4,2.8,6.4,6.2,7.3c5.8,2.3,12.5,1,18.7,1.1
			c3.4,0.1,6.7,0.6,10.1,1.1c1.9,0.3,4,0,5.8,0.4c1.1,0.2,2.1,0.9,3.2,1.2c6.3,1.6,14.5,0.2,20.7-1.2c5.5-1.2,13.4-2.9,15.8-8.7
			C514.1-645.9,513.2-649.9,510.4-652.5z M500.4-650.5c0,0,0-0.1,0.1-0.1C500.8-651,500.9-650.7,500.4-650.5z"/>
		<path class="st6" d="M515.6-676.5c-1.5-5.5-7-8.1-12.3-7c-5.9,1.2-11.4,3.2-17.5,3.8c-3.5,0.4-6.5,1.9-9.8,2.9
			c-3.2,0.9-5.3,1-8.6,1.1c-0.5,0-0.6,0.1-0.6,0.1c-0.1-0.1-0.4-0.2-0.8-0.3c-1.5-0.5-2.8-1.3-4.3-1.6c-2.1-0.5-4.2-0.4-6.3-0.3
			c-2,0.1-4,0.2-5.9,0.2c0,0-0.1,0-0.2,0c-1.8-2-4.2-3.2-7.2-3.2c-5.1,0-10.4,4.6-10,10c0.6,8.4,6.8,12.4,14.6,13.1
			c2.6,0.2,5.2,0.1,7.9,0c1,0,2.2,0.1,3.2-0.1c0,0,0.1,0.1,0.2,0.1c3.3,2.6,9.9,2.3,13.8,2.1c4.4-0.2,8.7-1.3,12.8-2.8
			c2.1-0.8,2.7-1.1,4-1.4c2.4-0.5,5-0.7,7.5-1.1c4.4-0.7,8.4-2.3,12.7-3.2C513.9-665.3,516.9-671.5,515.6-676.5z"/>
		<path class="st7" d="M399.9-496.3c-2.4-4.1-4.9-8.1-7.7-12c-1.5-2.1-5.9-9.1-9-9.2c-1.9,0-6.1,4.4-7.4,5.5c-2.3,1.9-4.6,4-6.6,6.3
			c-3.6,4.2-6.5,9.2-6.9,14.8c-0.9,11.6,7.4,18.1,16.7,22.8c10.9,5.5,22.9,3.8,34.4,1.8C412.3-476.8,405.2-487.4,399.9-496.3z
			 M396.9-509.5c3.2,4.8,6.6,9.4,9.5,14.4c4,6.8,6.3,14.4,10.5,21.1c0.7,1.1,1.7,2.9,2.8,3.7c1.4,1,2.4,0.6,4.1,0
			c3.7-1.2,7-3.1,10.8-4.1c-5.3-12.1-11-24-17.9-35.3c-3.6-5.8-7.5-11.8-12.5-16.4c-1.5-1.4-4.1-4.1-6.2-4.3
			c-2.8-0.3-7.5,4.8-9.4,6.9C390.2-518.6,394-513.9,396.9-509.5z M444-477.2c1.4-1.1,0.2-4.8-0.4-6.5c-2-5.7-5.9-11.1-8.9-16.4
			c-6.1-10.8-13.1-20.7-20.6-30.6c-1.7-2.2-6.3-9.6-9.8-5.8c-2.8,3,5.8,9.9,7.6,12c6,6.9,10.7,15.4,15.3,23.3
			c4.6,7.9,9.4,16.2,12.2,25C440.5-476.4,443.1-476.5,444-477.2z M428.5-544.8c-1.6-1.6-3.3-3.7-5.3-4.7c-2.8-1.5-5.1,1-7.1,3.3
			c-1.4,1.5-2.4,2.7-2.1,4.7c0.2,1.6,1.4,3.3,2.2,4.6c1.7,2.9,3.9,5.5,5.9,8.3c6,8.6,11.4,17.4,17,26.3c2.1,3.4,4.1,6.6,5.7,10.2
			c1.4,3.1,2.7,8.5,5.2,10.8c1.2,1.2-0.4,0.7,2,0.8c0.6,0,1.7-0.4,2.3-0.6c1.3-0.4,2.6-1,3.8-1.6c1-0.4,5.3-1.6,5.9-2.7
			c1.1-1.9-2.3-8.5-3.2-10.3c-2.6-5.8-6.6-10.8-9.5-16.4C445.3-523.9,437.8-535.2,428.5-544.8z M487.9-511.4
			c1.3,2.4,2.6,4.8,4.4,6.8c2.3,2.5,3.2,2.4,6,0.3c4-3.2,6.3-7.7,8.7-12.1c2.4-4.3,5-8.4,6.4-13.1c1.5-5,1.7-10.1,2.2-15.3
			c0.1-1.8,0.8-4.7-0.5-6.3c-1.4-1.8-4.9-1.5-6.9-1.4c-9.9,0.1-24.7,0-32.1,7.7C475.9-533.6,482.8-521,487.9-511.4z M477.2-490.1
			c1-1.8-2.2-7.3-3.3-9.5c-1.8-3.6-3.9-7-6.3-10.2c-3.9-5.2-7.9-10.5-11.8-15.7c-3.2-4.2-6.3-8.3-9.8-12.2
			c-5.3-6-10.6-15.8-18.7-18.2c1,4.1,5.5,8.6,8,11.9c3.1,4.1,6.2,8.1,9.5,12c5.6,6.6,8.9,14.5,13.3,21.9c2.4,4,4.7,7.7,6.3,12.1
			c1.4,3.8,2.5,7.9,4.6,11.4C470.8-486.9,476.3-488.5,477.2-490.1z M516.2-559.1c-0.7-2.2-3.6-0.7-4.7,0.2
			C512.4-558.2,517.2-556,516.2-559.1z M468.2-516.9c3.4,4.2,6.3,8.8,9,13.5c1.4,2.5,2.8,5,4.1,7.6c1.2,2.4,2,3.2,4.7,1.6
			c4.2-2.5,2.2-5.9,0.4-9.5c-5.1-9.8-9.4-19.7-13.2-30.2c-1.9-5.3-5.4-15.4,1.9-17.3c1.4-0.4,2.4-1.6,3.3-2.6
			c-4-2.3-10.2-1.1-14.7-2.1c-9.1-2-22.2-10.3-31.5-5.4c8.9,10.6,18.5,20.6,26.9,31.7C462.1-525.5,464.9-521.1,468.2-516.9z
			 M508.3-564c2.1-0.8,5.6-1.4,7.2-3c1.6-1.5,1.5-3.9-0.5-4.5c-2.9-0.8-7.7,1-10.5,1.5c-12.1,2.1-23.7,3-35.9,1.1
			c-6.4-1-12.9-1.8-19.3-2.9c-3.9-0.7-10.5-2.4-13.1,1.8c3.1,2.1,8.9,2.4,12.4,3.3c4.4,1.1,8.6,2.7,13,3.6c12.5,2.7,26.9,4,39.5,1.9
			C503.5-562.1,505.9-563,508.3-564z M493.9-574.1c4.6-0.3,9.2-0.9,13.7-2c2.4-0.6,6.7-1,7.7-3.1c0.6-1.3,0.4-4.3,0.4-5.8
			c0-1.8,0.5-2-1.4-2.7c-2.5-1-5.1,0.7-7.4,1.5c-6,2.1-12.4,2.7-18.6,3.8c-6.5,1.1-13.2,1.5-19.6-0.2c-5.9-1.5-11.3-4.5-17.1-6.2
			c-3.2-1-6.4-1.6-9.7-1.6c-1.2,0-4.2-0.3-5.2,0.4c-1.3,0.8-0.2-0.3-0.6,1c-0.6,2.5,1,7.1,1.4,9.7
			C456.3-577.6,474.9-572.9,493.9-574.1z M469.9-588.1c3.7,0.8,7.6,0.8,11.4,0.6c8.2-0.4,16.6-1.7,24.5-4.1c2.2-0.7,7.2-1.7,8.7-3.6
			c0.4-0.5,0.8-3.9,0.2-4.4c-1.1-1-8.9,1.4-10.3,1.6c-11.8,2-24.1,4.8-36.2,3.6c-9.3-0.9-17.8-4.9-26.8-6.6
			c-1.5-0.3-4.4-0.7-4.8,1.2c-0.3,1.4,1,2.8,2,3.4c1.7,0.9,4.5,0.4,6.3,0.5c3.5,0.3,7,1.1,10.3,2.3
			C460.1-591.8,464.8-589.3,469.9-588.1z M513.2-614.4c-0.1-1,0-2.7-0.5-3.6c-0.6-1.2,0.2-0.4-1.1-0.9c-2.1-0.9-6.4,0.3-8.5,0.6
			c-4,0.5-8,1.1-12,1.8c-5,0.8-10,2-15,2.4c-9.2,0.7-18-3.1-26.9-4.6c-2.1-0.4-10.2-2-11.4-0.2c-0.9,1.4-0.5,5.3-0.7,7
			c-0.3,2.7-0.8,3.1,1.8,4.2c2.7,1.1,5.4,1.9,8.2,2.7c12.7,3.6,25.1,5.6,38.3,4.3c6.2-0.6,12.7-1.2,18.8-2.8c3.3-0.9,7.6-1.5,10-3.9
			C513.8-609.9,513.5-612.2,513.2-614.4z M459.1-628.2c-4.2-0.2-8.1-0.3-12.2-1.3c-1.6-0.4-3.2-0.8-4.8-1.1c-1.8-0.3-3.8-0.8-3,1.8
			c1,3.4,6.6,3.5,9.4,4.1c8,1.8,17.2,4.9,25.6,4.2c6.8-0.5,13.5-2.4,20.4-3c4-0.3,13.7,0.9,16.6-2.8c2.9-3.6-1.4-4.5-4.1-4.2
			c-3.6,0.4-7.1,1.6-10.6,2.2c-7.1,1.2-14.3,1.6-21.5,1.4C469.6-626.8,464.4-627.9,459.1-628.2z M438.5-654.7
			c-0.5,4.2-1.2,8.3-0.3,12.6c0.8,3.8,3,5.2,6.5,6.5c6.6,2.6,13.6,1.9,20.5,2.2c12.2,0.6,25.4,2.3,37.3-1.3c1.8-0.6,6.3-1.8,7.2-3.6
			c0.3-0.5-0.1-2-0.1-2.5c-0.1-4.3-0.2-8.6-0.4-12.9c-0.1-1.8,0.5-6.7-3.1-4.1c-1.2,0.9-0.8,2.4-2.2,3.4c-2,1.5-5.4,1.7-7.8,2
			c-4.1,0.6-8.3,1.1-12.5,1.5c-8.9,1-18,1.3-26.7-0.9C450.8-652.7,444.6-653.7,438.5-654.7z M446.7-660.2c-0.2-3.7-0.6-7.5-1.1-11.2
			c-0.3-1.9-0.5-4.6-2.7-5.5c-4.2-1.7-4.2,12.3-4.2,15C441.4-661.2,444-660.7,446.7-660.2z M480.2-656.7c2.6-0.2,2.5-0.3,2.6-3.1
			c0.1-3.1-0.3-6.3-0.8-9.4c-0.3-1.8-0.6-6.8-1.9-8.1c-0.7-0.7-3-0.7-4.2-0.5c-0.3,0.1-1.5-0.2-1.8,0c-0.7,0.5-0.7,4.5-0.8,5.4
			c-0.4,5.5,1.3,10.7,2.3,16C477.1-656.5,478.6-656.6,480.2-656.7z M457-667.6c-0.2-1.5,0-8-1.1-9c-0.3-0.3-4.8-0.6-5.1-0.3
			c-1.6,1.2-0.7,9.3-0.5,11c0.2,2,0.2,5.4,1.8,6.9c1.5,1.4,4.1,1.2,6,1.4C457.7-661,457.4-664.3,457-667.6z M461.4-676.2
			c-1.6,1.9,0.1,9.5,0.4,11.8c0.2,2.4,0.6,6.7,3.2,7.8c1.3,0.6,4,0,5.4,0c-0.6-6.1,0.2-15-3.5-20.3
			C465.9-676.7,462-676.9,461.4-676.2z M499.9-662.7c2-0.5,6.3-0.6,7.8-1.9c1.1-1,0.2-4.3,0-6c-0.1-1.1,0.1-3.4-0.4-4.4
			c-0.6-1,0-0.3-1.3-1c-2.1-1.1-5.2-1.5-7.5-2.1C498.9-672.9,499.4-667.8,499.9-662.7z M493.1-674.9c-1.1-2.5-5.7-5.6-7.7-2.1
			c-1,1.8,0.3,7.1,0.3,9.1c0.1,3.1-0.2,7.9,3,9.5C499.4-653,495.2-670.2,493.1-674.9z M513.3-655.2c0.5,13.8,3.1,27.6,4.8,41.3
			c0.8,6.8,1.6,13.6,2,20.4c0.1,3.1-0.1,6.2,0.3,9.3c0.2,2.3,0.9,4.5,0.9,6.8c0,3.6-1.1,6.1-0.2,9.5c0.6,2.3,0.3,4.6,0,6.9
			c-0.5,4.4-0.7,8.7-0.8,13.2c-0.5,15.3-5,30.3-13.8,42.9c-3.1,4.5-7.6,8.1-11.9,11.5c-4.5,3.5-9.4,7.3-14.7,9.3
			c-2.1,0.8-4.8,1.1-6.7,2.5c-1.6,1.3-1.7,3.1-2.8,4.7c-1,1.6-1.6,1.6-3.3,0.7c-0.8-0.4-1.1-1.1-2-1.4c-1.3-0.5-1-0.3-2.1-0.2
			c-2.7,0.4-5.7,2.1-8.3,3c-4.4,1.6-8.9,3.2-13.3,4.8c-7.1,2.6-14.3,5.1-21.4,7.8c-9.5,3.6-20.5,5.5-30.6,3.2
			c-6.6-1.5-13-4.3-18.7-7.9c-5.8-3.6-8.8-7.8-11.5-14c-6.2-13.9,3.5-26.2,13.6-35.1c3.2-2.8,5.4-5.5,7.8-8.9
			c1.2-1.7,4.5-2.7,6.2-4.7c1.6-1.9,3.3-2.5,5.2-3.8c2-1.3,1.5-2.8,2.3-4.9c0.6-1.6,0.2-1.1,2.1-1.6c0.5-0.1,1.1-0.2,1.6-0.3
			c0.9-0.2,1.8-0.5,2.7-0.8c2.5-1.1,4.7-2.9,6.8-4.5c5-3.9,10.3-8.3,14-13.5c1.5-2.2,2.3-4.9,4.5-6.6c1.1-0.8,2-1.1,2.9-2.3
			c3.7-5.3,3.7-12.3,2.9-18.3c-1-8.3-0.2-16.8,0.7-25.1c0.8-7.4,2-14.9,1.9-22.3c-0.1-5.9-0.5-11.8-0.7-17.6
			c-0.2-6.5-0.4-13,0.4-19.4c0.3-2.1,1.6-5.2,0.9-7.1c-0.7-1.8-3-2.2-2.3-4.6c1.1-3.9,8.3-1.8,10.9-1.3c6.2,1.2,12.1,1.1,18.4,1.2
			c8.6,0.1,17.2-1.3,25.8-1.5c5.1-0.1,10.2-0.2,15.2,0.6c2.8,0.4,7.1,1.1,8.5,4C513.2-671.4,512.9-663.2,513.3-655.2z"/>
		<path class="st5" d="M411.6-265c6.1,0,12-0.3,18,0.7c5.9,1,11.7,1.7,17.7,1.7c6.2,0,12.4-0.2,18.6-0.1c5.6,0.1,11.5,0,16.5-3.1
			c11-6.7,0.9-24-10.1-17.3c1-0.6-0.8,0.2-1.1,0.2c-0.6,0.1-1.2,0.1-2,0.2c-2.8,0.1-5.7-0.1-8.5-0.1c-5.6,0-11.2,0.2-16.8,0
			c-4.4-0.2-10.9-1.3-13.8-1.7c-6.1-0.9-12.2-0.7-18.4-0.6C398.8-285,398.7-265,411.6-265L411.6-265z"/>
		<path class="st5" d="M409.6-234.7c7,0,14,0,21,0c2.7,0,5.4,0.2,8.1,0.1c3.3-0.1,6.4-1.1,9.7-1.6c10.9-1.5,21.9-0.2,32-5.1
			c4.8-2.4,6.2-9.3,3.6-13.7c-2.9-4.9-8.8-6-13.7-3.6c-3.3,1.6-7.9,1.3-11.5,1.7c-5.2,0.6-10.5,0.4-15.7,1.4
			c-10.7,2.1-22.5,0.8-33.4,0.8C396.8-254.7,396.7-234.7,409.6-234.7L409.6-234.7z"/>
		<path class="st5" d="M551.1-162.5c0.3,1.1,0.3,1,0.2-0.3c-0.2-1.5-0.4-2.9-0.6-4.4c-0.3-1.6-0.6-3.3-1.1-4.9
			c-1-3.6-2.8-7-4.3-10.5c-1.5-3.3-2.9-6.6-5-9.6c-1.2-1.7-2.4-3.3-3.9-4.7c0.1,0.1-1.4-1.2-2.3-2c-1.7-2.4-4.4-4-7.8-4
			c-5,0-10.6,4.6-10,10c0.3,3.2,0.8,5.6,3,8c1.1,1.2,2.6,1.8,3.8,2.8c-0.2-0.1,0.1,0.4,0.6,1c-0.7-0.3-1.5-0.5-2.4-0.6
			c-7.5-1-16.7,7.7-19.9,14c-4.1,8.1-3.5,17.9,3.4,24.1c6.1,5.4,12.6,8.4,20.8,8.3c7.5-0.1,16.2,0.3,21.8-5.7
			C552.7-146.4,551.9-155.4,551.1-162.5z"/>
		<path class="st5" d="M487.3-157.7c0.2-0.6,1.2-4.4,0.7-3.2c-0.6,1.3,1.4-2.7,1.6-3.2c0.9-2,1.9-3.6,3.2-5.4
			c2.8-3.8,5.5-7.5,8.2-11.3c-0.6,0.8,0.2-0.3,0.4-0.5c1.1-1.5,2.3-2.9,3.3-4.4c1.3-1.9,2.5-3.8,3.8-5.6c1.1-1.5,2.9-4.5,3.5-5.4
			c0,0,1.7-2.1,2.2-2.6c-1.8,1.8,2.1-1.6,2.2-1.6c9.4-8.9-4.8-23-14.1-14.1c-6.8,6.4-12,15.5-18.5,24.2c-2.5,3.3-6.3,8.5-9.1,12.6
			c-3.2,4.5-5.2,11.4-6.6,15.3c-1.8,5.1,2,10.9,7,12.3C480.5-149.2,485.5-152.6,487.3-157.7L487.3-157.7z"/>
		<path class="st5" d="M455.9-175.1c-0.8,2.7,0.3-0.2,1-1.1c0.7-0.8,1.5-1.5,2.3-2.2c2.1-1.8,4.3-3.4,6.2-5.4
			c4.1-4.3,8.1-8.3,12.8-12.1c8.1-6.6,17.4-11.6,25.5-18.2c4.2-3.4,3.5-10.6,0-14.1c-4.2-4.2-9.9-3.4-14.1,0
			c-9.1,7.3-19.4,12.9-28.3,20.5c-4.5,3.9-8.3,8.5-12.8,12.4c-4.9,4.1-9.8,8.5-11.8,14.8C432.9-168,452.2-162.8,455.9-175.1
			L455.9-175.1z"/>
		<path class="st5" d="M449-210.5c2.2-0.7,3.9-1.8,5.8-2.8c-5,2.6,1.9-0.1,2.8-0.4c3.6-1.2,7.2-2.1,10.8-3.2c3.7-1.2,7.3-2.6,11-3.9
			c3.7-1.3,6.9-4.4,9.7-5.7c8.7-4.2,1.1-17.2-7.6-13c-2.9,1.4-4.6,3.6-7.7,4.7c-3.6,1.3-7.2,2.8-10.9,3.8c-3.4,0.9-6.8,1.9-10.1,3.1
			c-1.6,0.5-3.2,1-4.7,1.5c-1.3,0.4-2.4,1-3.3,1.9c1.8-1,1.9-1.2,0.1-0.5C435.9-221.9,439.8-207.4,449-210.5L449-210.5z"/>
		<path class="st1" d="M408.6-253c5.5,0,11.3,0.7,16.7,0c4.7-0.6,9.1-2.2,13.9-1.8c12.1,1,23.9,1.1,36.1,1.1c9.5,0,9.6-14.9,0-14.8
			c-11.7,0-23.4,0.6-35-1.1c-5-0.7-10.6,0.6-15.4,1.5c-5,1-11,0.2-16.2,0.2C399.1-267.8,399.1-253,408.6-253L408.6-253z"/>
		<path class="st1" d="M417.3-227c11.8,0,23.6,0,35.4,0c4.9,0,9.9,0.7,14.7-0.5c3.9-1,8.5-2,12.6-2.1c9.5-0.2,9.6-15,0-14.8
			c-4.2,0.1-9,0.9-13.1,1.7c-2.3,0.4-4.1,1.2-6.5,1.1c-2.6,0-5.1-0.2-7.7-0.2c-11.8,0-23.6,0-35.4,0
			C407.8-241.8,407.8-227,417.3-227L417.3-227z"/>
		<path class="st1" d="M450.1-196.4c-2.4,2.9-3,3.8-1.6,2.8c0.4-0.3,0.8-0.6,1.2-0.9c1.1-0.8,1.8-1.9,2.8-2.8c1-1,2-1.5,3.7-2.1
			c4.6-1.6,8.4-2.6,12-6c3.6-3.4,7.6-5,11.8-7.5c1.9-1.1,3.6-2.6,5.5-3.6c2.4-1.2,4.4-2.1,6.4-4c6.9-6.6-3.6-17.1-10.5-10.5
			c-1.5,1.4-4.1,1.9-5.8,3.1c-2.4,1.6-4.7,3-7.3,4.3c-2.7,1.3-5,2.8-7.3,4.7c-1.7,1.4-3.1,3.2-5,4.2c-4.8,2.3-10.2,2.5-14,6.7
			c-0.3,0.3-2,2.6-1.6,2.2c0.4-0.4-1.8,1.2-2.1,1.5c-2.2,2.2-3.1,5-3.1,8C435.3-186.8,450.1-186.8,450.1-196.4L450.1-196.4z"/>
		<path class="st1" d="M466.5-161.1c2-2.4,3.9-5,5.9-7.4c1.9-2.2,2.5-3.2,4.6-4.7c4.5-3.3,5.4-9.5,9.3-13.6c2-2.1,3.5-3.3,5.1-5.7
			c1.2-1.9,2.6-3.5,4.4-5c2.5-2.1,4.7-3.2,6.3-6.3c1.4-2.7,3-4.5,5.2-6.7c6.8-6.7-3.7-17.2-10.5-10.5c-2.2,2.2-4.5,4.4-6.3,7.1
			c-0.3,0.5-1.8,3.9-1.1,3c-0.6,0.8-2.2,1.3-3,2c-2.1,1.8-4.5,3.9-6.2,6.1c-0.8,1.1-1.2,2.5-2,3.5c-0.6,0.7-1.7,1.4-2.5,2.1
			c-2.3,2.2-3.6,5.1-5.3,7.7c-0.7,1.1-1.5,2.1-2.1,3.2c-0.4,0.9-0.8,1.9-1.1,2.8c0.1-0.4,0.3-0.8,0.4-1.3c-5,2.6-8.1,8.8-11.5,13.1
			c-2.6,3.1-3,7.4,0,10.5C458.7-158.5,464-158.1,466.5-161.1L466.5-161.1z"/>
		<path class="st1" d="M496.5-147.1c0.6-2.9,1.4-5.7,2-8.6c0.6-2.8,2.1-4.1,3.5-6.5c1.4-2.4,2.2-5.1,3.2-7.6
			c1.1-2.7,2.2-3.9,3.8-6.2c0.8-1.1,1.3-2.3,1.7-3.7c0.3-1,1.2-2.7,0.1-1.3c0.9-1,2.2-1.7,3.1-2.8c1.1-1.3,1.7-2.6,2.4-4.1
			c2.5-5.2,7.6-8.6,10.1-14.1c4-8.6-8.8-16.1-12.8-7.5c-2.5,5.5-7.4,9.4-10.3,14.7c-1.1,2-3,3-4.4,4.9c-1.5,2.2-2,4.7-3.4,6.9
			c-1.6,2.6-2.9,4.9-4.1,7.8c-0.8,2-1.5,4.2-2.7,6.1c-1.9,2.9-3.6,5.1-4.5,8.6c-0.8,3.1-1.5,6.3-2.1,9.4
			C480.2-141.7,494.5-137.7,496.5-147.1L496.5-147.1z"/>
		<path class="st5" d="M446.8-210.8c-0.6-7-5.2-12.1-12.4-12.7c-2.9-0.2-5.5-0.4-8.3-1.2c-3.8-1-7.3-3.1-11.1-3.9
			c-9.4-2.1-13.4,12.3-4,14.5c1.3,0.3,2.6,0.7,3.8,1.2c-0.8,1.2-1.3,2.6-1.4,4.2c-0.4,6.2,3.7,12.3,6.8,17.4
			c3.3,5.3,8.1,10.6,14.3,12.3c8.1,2.2,11.5-6.2,12.2-12.6C447.3-197.7,447.3-204.7,446.8-210.8z"/>
		<path class="st7" d="M520.3-139.5c6.4,0.1,12.5,0.5,18.8,1.2c4.2,0.4,8.1,0.5,9.8-4c1.7-4.6,1-11,0.7-15.8
			c-0.9-11.8-5.4-24.6-12.9-33.7c-1.9-2.3-4.1-4.4-6.6-6c-0.8-0.5-2.1-1.6-3.1-1.6c-1.4,0-1.5,0.4-2.5,1.7
			c-3.7,4.5-6.9,9.6-9.7,14.7c-6.2,11.2-12.8,24.6-12.8,37.7C507.7-142.2,513.6-139.5,520.3-139.5z M501.7-166.7
			c2.9-8.6,8.3-15.6,12.1-23.6c1.9-4,6.8-8,7.1-12.6c0.3-5.4-4.7-1.1-6.2,0.6c-5.5,6.3-10.5,13.8-14.7,21
			c-4.1,7.1-7.5,14.6-11.2,21.9c-0.6,1.2-3.2,4.9-2.7,6c0.5,1.2,4.7,2.8,5.8,3.5c1.3,0.8,2.6,1.6,3.9,2.4
			C499.3-153,499.7-160.7,501.7-166.7z M490.8-174.7c2.8-4.8,5.9-9.4,8.9-14c2.9-4.4,5.9-8.8,8.8-13.3c1-1.6,5.4-6.5,5.2-8.6
			c-0.1-0.7-2.1-2.3-2.9-2.3c-0.9,0.1-2.3,1.8-2.9,2.3c-3,2.8-5.6,6-8.1,9.2c-6.7,8.4-12.9,17.3-18.5,26.5
			c-2.2,3.5-4.3,7.1-6.1,10.9c-0.4,0.8-1.6,2.8-1.5,3.8c0.3,1.6,5.3,3.1,7,3.5C485.4-161.9,487.4-168.6,490.8-174.7z M413.8-203.8
			c0.4,2.6,0.5,5.4,1.9,7.7c2.3,3.6,7.1,6,10.7,8.1c2.7,1.6,5.3,3.4,7.9,5.1c1.4,0.9,2.8,1.9,4.3,2.5c2.2,0.9,2.3,0.6,2.8-1.7
			c0.6-2.8,0.1-5.6,0.4-8.4c0.3-3,0.9-5.9,1.2-8.9c0.3-3.8,0.4-7.6,0.4-11.4c0-1,0.7-5,0.1-5.8c-0.3-0.4-2.2-0.6-2.7-0.7
			c-4.9-1.4-9.7-2.9-14.6-4.2c-4.2-1.1-9.2-2.8-13.6-2.3C411.3-216.9,412.7-210.4,413.8-203.8z M488.5-193.3
			c3.2-5.1,6.4-10.3,10.6-14.6c2.7-2.8,7-5.2,6.3-9.6c-14.2,11.1-28.9,21.2-41.2,34.4c-3.3,3.5-7.4,7-10.1,10.9
			c-0.2,0.3-1.2,1-1.2,1.3c-0.1,0.7,2.6,2.2,3.1,2.5c3.6,2.4,7.6,4.3,11.7,5.6C476.2-171.6,482-182.9,488.5-193.3z M456.2-181
			c3.4-3.2,6.6-6.5,9.7-9.9c3.5-3.7,7-7.4,11-10.6c8.6-6.8,17.2-13.7,25.9-20.5c-4.4-2.4-6.6,1.4-10.1,3.8c-4,2.7-8.6,4.3-12.9,6.7
			c-4.4,2.4-8.5,5.2-12.5,8.1c-4,2.9-7.6,6.3-11.7,9.1c-2.1,1.4-4.9,2.5-6.7,4.2c-2.1,2-2.3,5.1-2.9,7.8c-0.8,3.8-1.2,4.6,1.4,7.8
			C450.8-175.7,453.7-178.7,456.2-181z M478.7-215.7c3.9-2.1,7.9-4,11.7-6.2c1.7-1,5.3-2.7,5.3-5.1c0-5.8-21.7,4.9-24.8,6.3
			c-5,2.2-9.7,5.1-14.6,7.5c-1.9,0.9-7.2,1.7-7.9,2.9c-1.1,1.8-0.4,6.9-0.5,9c-0.1,2.1-0.2,4.2-0.4,6.4
			C458.9-200.4,467.7-209.8,478.7-215.7z M447.9-220.6c0.8,0.8,1.4,3,2.3,3.5c0.9,0.5,4.2-1.6,5.4-2.2c9.7-4.3,20.1-7,29.1-12.8
			c-7.6,0.1-15.4,2.2-22.8,3.7c-4.3,0.9-8.7,1.8-13,2.9c-2.5,0.6-5.5,1-7.8,2.3C443.5-222.4,446.2-222.3,447.9-220.6z M412.7-230.4
			c2.8,2.3,8.7,2.4,12.1,3c7.6,1.3,15.3-1.3,22.7-2.7c12-2.3,24.1-4.7,36.1-7c-0.5-1.2-1.2-2.3-1.9-3.4c-1.1-1.8-1.3-1.7-3.4-1.6
			c-3.1,0.2-6.2,0.3-9.2,0.4c-6.7,0.3-13.4,0.6-20,1c-12.7,0.8-25.8,1.8-38,5.4C411.3-233.4,411.1-231.7,412.7-230.4z M418.3-243
			c2.6-0.3,5.4,0.2,8,0.1c5.7-0.2,11.2-1.3,16.8-2.1c4.4-0.7,8.8-0.7,13.2-0.9c6-0.3,12-0.7,18-1c1.3-0.1,4.1,0.3,5.2-0.3
			c1.1-0.6,0.8-0.1,0.9-2c0-1.2,0.6-5.7-0.1-6.5c-0.4-0.4-2.3-0.1-2.9-0.1c-4.5-0.1-9.1,0.1-13.6,0.2c-12.8,0.4-25.5,1.1-38.2,2.4
			c-4.4,0.5-9,0.8-13.2,2.1c-4.9,1.5-2.9,6.8-0.6,10.3C414.1-240.9,416-242.7,418.3-243z M410.1-256.6c15.5-2.2,31.2-3.6,46.8-3.9
			c5.6-0.1,11.3-0.1,16.9-0.3c1.9-0.1,4.8,0.1,6.2-1.2c1-1-0.1-2.6,0.8-3.7c-0.1,0.1-8.1,0.6-8.1,0.1c0.1-1.2-55.8,0.4-61.9,2
			C410.5-261.3,410.3-258.9,410.1-256.6z M480.6-271.5c-0.2-2.3,0.4-7.8-1.6-9.5c-1.3-1.1-10,1.1-12.4,1.2c-9.4,0.5-18.9,2-28.3,1.5
			c-7.9-0.4-16.2-2.2-24.1-1.6c-5.7,0.4-4.5,5.7-3.7,10C433.9-271.3,457.2-271.6,480.6-271.5z M416.2-285.5
			c-0.1-5,0.1-13.5-3.4-17.5c-0.3,5.9-1.7,11.6-1.6,17.5C412.8-285.6,414.5-285.5,416.2-285.5z M433-304.8c-1.1,0.9-0.9,2.8-1,4.4
			c-0.3,3.4-0.7,6.9-0.3,10.3c0.5,4.7,3.1,5.8,7.5,5.4c-2.1-6.4,1.1-15.2-2.9-21.1C435.4-305.5,433.7-305.4,433-304.8z M476.2-286.9
			c2.8-0.3,3.4-1.1,3.4-3.8c0-2.6-0.3-5.2-0.6-7.8c-0.3-2.9,0.1-6.9-3.5-7.3c-3.4-0.3-3.7,1-3.7,4c0,3.1,0.6,6.1,0.8,9.1
			C472.8-289.6,472.6-286.5,476.2-286.9z M453.5-284.7c-0.3-3.1-0.6-6.2-0.9-9.2c-0.2-2.2-0.4-4.4-0.6-6.6c-0.1-0.7,0.1-3.4-0.4-4
			c-0.4-0.5-8.1-0.9-8.9-0.2c-1.1,1,0.2,7.9,0.3,9.3c0.4,3.5,0.9,7.1,2.1,10.4C445.9-283.3,451.6-284.6,453.5-284.7z M427.1-284.6
			c0.4-5,0.7-10.2-0.1-15.2c-0.2-1-0.3-2.4-0.7-3.4c-0.7-1.3-0.3-0.9-1.5-1.4c-0.8-0.3-3-0.3-3.8,0.2c-2,1.1-1.5,3.7-1.4,5.7
			c0.3,4.3,0.3,9.2,2.6,13C423.9-285.3,425.5-284.9,427.1-284.6z M468.6-285.7c-0.7-5.4-1.4-10.8-2-16.1c-0.3-2.4,0.1-2.4-2.1-2.9
			c-2.6-0.5-5.2-0.8-7.8-1.3c-0.1,5,0.3,10.2,1.1,15.2C458.7-284.6,463.6-285.6,468.6-285.7z M513-217.4
			c8.9,7.6,20.5,13.8,27.6,23.3c8.2,10.9,14.2,26.7,14.2,40.4c0,4.5-0.7,8.8-1.4,13.2c-0.3,1.9-0.2,4.2-1.6,5.7
			c-3.3,3.6-10.8,3.1-15.1,3.1c-9.2,0-20.6-0.5-29.2-4.3c-3.8-1.7-7.8-3.3-11.6-5.1c-3.2-1.5-5.8-4.1-9-5.6
			c-5.8-2.7-11.1-5.6-16.7-8.8c-8.4-4.8-16.7-9.7-25.1-14.5c-7.2-4.2-13.8-9.3-21.2-13.2c-5.2-2.8-11.6-5.4-13.3-11.7
			c-0.7-2.8-1-5.8-1.4-8.7c-0.7-4.7-1.5-9.3-2.2-14c-0.5-3.2-1.7-7.1-1.4-10.3c0.1-1.6,0.8-2.9,1.1-4.4c0.7-3.5,0.1-6.9-0.5-10.3
			c-0.7-3.7-1.3-7.2-1-11c0.3-3.4,1.1-6.8,1.1-10.3c0-5-0.9-9.8-0.5-14.8c0.4-4.4,0.8-8.9,1.2-13.3c0.3-3.1,0.6-6.2,0.8-9.2
			c0.1-2.1-1.7-8.2,1.5-9.5c1.5-0.6,3.4,1.3,4.7,1.5c0.9,0.1,1.9-0.3,2.8-0.4c2.4-0.2,4.9-0.1,7.4-0.1c17-0.3,33.9-0.7,50.9-1
			c2.3,0,5.7-0.7,7.4,0.8c2.1,1.7,1.2,5.8,1.2,8.2c0.3,8.4,0.8,16.8,1.2,25.3c0.4,8.1,0.5,16,0.7,24.1c0.2,6.7,1.8,11.4,6.8,15.8
			c3.7,3.3,7.6,6.5,12.5,7.5C506.7-224.1,509-220.8,513-217.4z"/>
		<path class="st6" d="M283.8-368.3c0.1-0.2,0.3-0.5,0.4-0.7c2.6-4,6.2-7,9.4-11.2c2.1-3,5.3-5.7,7.8-8.3
			c-5.7,6.5-12.2,12.7-16.5,20.1c1.1-0.1,2.2-0.3,3.1-1.2c1.8-2.2,3.6-4.3,5.4-6.3c-0.2-0.2-0.7-0.7-0.9-0.9
			c6.2-4.8,9.5-11.8,16.1-16.1c-0.1,0.3,0.2,0.4,0.4,0.5c0,0,0,0,0,0c0,0,0,0,0,0c0.2,0.1,0.2,0.2-0.1,0.6c0.3-0.3,0.3-0.5,0.1-0.6
			c-5.6,5.2-10.5,10.5-15.4,16.3c8-8.8,16.5-16.5,25.1-25.1c0.4-0.4,1.1-1.1,1.5-1.5c0.8-2.1,2-3.8,3.5-5.3
			c-1.5-0.8-2.3-4.5-4.8-1.1c-0.2-0.2-0.7-0.7-0.9-0.9c1.8-4.1-0.2-8.3-4.1-6.3c-4.2,2.4-7.7,7.7-12.2,11.3
			c-3.2,2.7-6.3,5.4-8.8,8.8c-3.4,4.7-8,8.9-11.1,13.8c-1.2,1.7-4.5,3.6-4.5,5c-0.2,0.8,0.3,1.3,0.9,1.8c2.3-2.5,4.7-4.9,7-7.4
			c2.7-3.2,5.3-6.4,7.8-9.7c-2.2,3.5-4.9,6.6-7.8,9.7c-2.2,2.6-4.4,5.1-6.5,7.7c0.5,0.4,1.1,0.8,1.4,1.4c0,0-0.7,0.7-1.1,1.1
			c-0.3,2.6,1.6,3.8,3.4,4.2C282.8-368.4,283.3-368.4,283.8-368.3z"/>
		<path class="st6" d="M405.5-344.2c0.1-0.2,0.3-0.5,0.4-0.7c2.6-4,6.2-7,9.4-11.2c2.1-3,5.3-5.7,7.8-8.3
			c-5.7,6.5-12.2,12.7-16.5,20.1c1.1-0.1,2.2-0.3,3.1-1.2c1.8-2.2,3.6-4.3,5.4-6.3c-0.2-0.2-0.7-0.7-0.9-0.9
			c6.2-4.8,9.5-11.8,16.1-16.1c-0.1,0.3,0.2,0.4,0.4,0.5c0,0,0,0,0,0c0,0,0,0,0,0c0.2,0.1,0.2,0.2-0.1,0.6c0.3-0.3,0.3-0.5,0.1-0.6
			c-5.6,5.2-10.5,10.5-15.4,16.3c8-8.8,16.5-16.5,25.1-25.1c0.4-0.4,1.1-1.1,1.5-1.5c0.8-2.1,2-3.8,3.5-5.3
			c-1.5-0.8-2.3-4.5-4.8-1.1c-0.2-0.2-0.7-0.7-0.9-0.9c1.8-4.1-0.2-8.3-4.1-6.3c-4.2,2.4-7.7,7.7-12.2,11.3
			c-3.2,2.7-6.3,5.4-8.8,8.8c-3.4,4.7-8,8.9-11.1,13.8c-1.2,1.7-4.5,3.6-4.5,5c-0.2,0.8,0.3,1.3,0.9,1.8c2.3-2.5,4.7-4.9,7-7.4
			c2.7-3.2,5.3-6.4,7.8-9.7c-2.2,3.5-4.9,6.6-7.8,9.7c-2.2,2.6-4.4,5.1-6.5,7.7c0.5,0.4,1.1,0.8,1.4,1.4c0,0-0.7,0.7-1.1,1.1
			c-0.3,2.6,1.6,3.8,3.5,4.2C404.5-344.3,405-344.2,405.5-344.2z"/>
		<path class="st6" d="M155.1,0c0.1-0.2,0.3-0.5,0.4-0.7c2.6-4,6.2-7,9.4-11.2c2.1-3,5.3-5.7,7.8-8.3c-5.7,6.5-12.2,12.7-16.5,20.1
			c1.1-0.1,2.2-0.3,3.1-1.2c1.8-2.2,3.6-4.3,5.4-6.3c-0.2-0.2-0.7-0.7-0.9-0.9c6.2-4.8,9.5-11.8,16.1-16.1c-0.1,0.3,0.2,0.4,0.4,0.5
			c0,0,0,0,0,0c0,0,0,0,0,0c0.2,0.1,0.2,0.2-0.1,0.6c0.3-0.3,0.3-0.5,0.1-0.6c-5.6,5.2-10.5,10.5-15.4,16.3
			c8-8.8,16.5-16.5,25.1-25.1c0.4-0.4,1.1-1.1,1.5-1.5c0.8-2.1,2-3.8,3.5-5.3c-1.5-0.8-2.3-4.5-4.8-1.1c-0.2-0.2-0.7-0.7-0.9-0.9
			c1.8-4.1-0.2-8.3-4.1-6.3c-4.2,2.4-7.7,7.7-12.2,11.3c-3.2,2.7-6.3,5.4-8.8,8.8c-3.4,4.7-8,8.9-11.1,13.8c-1.2,1.7-4.5,3.6-4.5,5
			c-0.2,0.8,0.3,1.3,0.9,1.8c2.3-2.5,4.7-4.9,7-7.4c2.7-3.2,5.3-6.4,7.8-9.7c-2.2,3.5-4.9,6.6-7.8,9.7c-2.2,2.6-4.4,5.1-6.5,7.7
			c0.5,0.4,1.1,0.8,1.4,1.4c0,0-0.7,0.7-1.1,1.1c-0.3,2.6,1.6,3.8,3.4,4.2C154.2-0.1,154.6,0,155.1,0z"/>
		<path class="st6" d="M112.3-662.1c0.1-0.2,0.3-0.5,0.4-0.7c2.6-4,6.2-7,9.4-11.2c2.1-3,5.3-5.7,7.8-8.3
			c-5.7,6.5-12.2,12.7-16.5,20.1c1.1-0.1,2.2-0.3,3.1-1.2c1.8-2.2,3.6-4.3,5.4-6.3c-0.2-0.2-0.7-0.7-0.9-0.9
			c6.2-4.8,9.5-11.8,16.1-16.1c-0.1,0.3,0.2,0.4,0.4,0.5c0,0,0,0,0,0c0,0,0,0,0,0c0.2,0.1,0.2,0.2-0.1,0.6c0.3-0.3,0.3-0.5,0.1-0.6
			c-5.6,5.2-10.5,10.5-15.4,16.3c8-8.8,16.5-16.5,25.1-25.1c0.4-0.4,1.1-1.1,1.5-1.5c0.8-2.1,2-3.8,3.5-5.3
			c-1.5-0.8-2.3-4.5-4.8-1.1c-0.2-0.2-0.7-0.7-0.9-0.9c1.8-4.1-0.2-8.3-4.1-6.3c-4.2,2.4-7.7,7.7-12.2,11.3
			c-3.2,2.7-6.3,5.4-8.8,8.8c-3.4,4.7-8,8.9-11.1,13.8c-1.2,1.7-4.5,3.6-4.5,5c-0.2,0.8,0.3,1.3,0.9,1.8c2.3-2.5,4.7-4.9,7-7.4
			c2.7-3.2,5.3-6.4,7.8-9.7c-2.2,3.5-4.9,6.6-7.8,9.7c-2.2,2.6-4.4,5.1-6.5,7.7c0.5,0.4,1.1,0.8,1.4,1.4c0,0-0.7,0.7-1.1,1.1
			c-0.3,2.6,1.6,3.8,3.4,4.2C111.3-662.1,111.8-662.1,112.3-662.1z"/>
		<path class="st6" d="M189.2-547.6c0.1-0.2,0.3-0.5,0.4-0.7c2.6-4,6.2-7,9.4-11.2c2.1-3,5.3-5.7,7.8-8.3
			c-5.7,6.5-12.2,12.7-16.5,20.1c1.1-0.1,2.2-0.3,3.1-1.2c1.8-2.2,3.6-4.3,5.4-6.3c-0.2-0.2-0.7-0.7-0.9-0.9
			c6.2-4.8,9.5-11.8,16.1-16.1c-0.1,0.3,0.2,0.4,0.4,0.5c0,0,0,0,0,0c0,0,0,0,0,0c0.2,0.1,0.2,0.2-0.1,0.6c0.3-0.3,0.3-0.5,0.1-0.6
			c-5.6,5.2-10.5,10.5-15.4,16.3c8-8.8,16.5-16.5,25.1-25.1c0.4-0.4,1.1-1.1,1.5-1.5c0.8-2.1,2-3.8,3.5-5.3
			c-1.5-0.8-2.3-4.5-4.8-1.1c-0.2-0.2-0.7-0.7-0.9-0.9c1.8-4.1-0.2-8.3-4.1-6.3c-4.2,2.4-7.7,7.7-12.2,11.3
			c-3.2,2.7-6.3,5.4-8.8,8.8c-3.4,4.7-8,8.9-11.1,13.8c-1.2,1.7-4.5,3.6-4.5,5c-0.2,0.8,0.3,1.3,0.9,1.8c2.3-2.5,4.7-4.9,7-7.4
			c2.7-3.2,5.3-6.4,7.8-9.7c-2.2,3.5-4.9,6.6-7.8,9.7c-2.2,2.6-4.4,5.1-6.5,7.7c0.5,0.4,1.1,0.8,1.4,1.4c0,0-0.7,0.7-1.1,1.1
			c-0.3,2.6,1.6,3.8,3.4,4.2C188.2-547.6,188.7-547.6,189.2-547.6z"/>
		<path class="st6" d="M382.3-662.1c0.1-0.2,0.3-0.5,0.4-0.7c2.6-4,6.2-7,9.4-11.2c2.1-3,5.3-5.7,7.8-8.3
			c-5.7,6.5-12.2,12.7-16.5,20.1c1.1-0.1,2.2-0.3,3.1-1.2c1.8-2.2,3.6-4.3,5.4-6.3c-0.2-0.2-0.7-0.7-0.9-0.9
			c6.2-4.8,9.5-11.8,16.1-16.1c-0.1,0.3,0.2,0.4,0.4,0.5c0,0,0,0,0,0c0,0,0,0,0,0c0.2,0.1,0.2,0.2-0.1,0.6c0.3-0.3,0.3-0.5,0.1-0.6
			c-5.6,5.2-10.5,10.5-15.4,16.3c8-8.8,16.5-16.5,25.1-25.1c0.4-0.4,1.1-1.1,1.5-1.5c0.8-2.1,2-3.8,3.5-5.3
			c-1.5-0.8-2.3-4.5-4.8-1.1c-0.2-0.2-0.7-0.7-0.9-0.9c1.8-4.1-0.2-8.3-4.1-6.3c-4.2,2.4-7.7,7.7-12.2,11.3
			c-3.2,2.7-6.3,5.4-8.8,8.8c-3.4,4.7-8,8.9-11.1,13.8c-1.2,1.7-4.5,3.6-4.5,5c-0.2,0.8,0.3,1.3,0.9,1.8c2.3-2.5,4.7-4.9,7-7.4
			c2.7-3.2,5.3-6.4,7.8-9.7c-2.2,3.5-4.9,6.6-7.8,9.7c-2.2,2.6-4.4,5.1-6.5,7.7c0.5,0.4,1.1,0.8,1.4,1.4c0,0-0.7,0.7-1.1,1.1
			c-0.3,2.6,1.6,3.8,3.5,4.2C381.3-662.1,381.8-662.1,382.3-662.1z"/>
		<path class="st6" d="M495.3-451.6c0.1-0.2,0.3-0.5,0.4-0.7c2.6-4,6.2-7,9.4-11.2c2.1-3,5.3-5.7,7.8-8.3
			c-5.7,6.5-12.2,12.7-16.5,20.1c1.1-0.1,2.2-0.3,3.1-1.2c1.8-2.2,3.6-4.3,5.4-6.3c-0.2-0.2-0.7-0.7-0.9-0.9
			c6.2-4.8,9.5-11.8,16.1-16.1c-0.1,0.3,0.2,0.4,0.4,0.5c0,0,0,0,0,0c0,0,0,0,0,0c0.2,0.1,0.2,0.2-0.1,0.6c0.3-0.3,0.3-0.5,0.1-0.6
			c-5.6,5.2-10.5,10.5-15.4,16.3c8-8.8,16.5-16.5,25.1-25.1c0.4-0.4,1.1-1.1,1.5-1.5c0.8-2.1,2-3.8,3.5-5.3
			c-1.5-0.8-2.3-4.5-4.8-1.1c-0.2-0.2-0.7-0.7-0.9-0.9c1.8-4.1-0.2-8.3-4.1-6.3c-4.2,2.4-7.7,7.7-12.2,11.3
			c-3.2,2.7-6.3,5.4-8.8,8.8c-3.4,4.7-8,8.9-11.1,13.8c-1.2,1.7-4.5,3.6-4.5,5c-0.2,0.8,0.3,1.3,0.9,1.8c2.3-2.5,4.7-4.9,7-7.4
			c2.7-3.2,5.3-6.4,7.8-9.7c-2.2,3.5-4.9,6.6-7.8,9.7c-2.2,2.6-4.4,5.1-6.5,7.7c0.5,0.4,1.1,0.8,1.4,1.4c0,0-0.7,0.7-1.1,1.1
			c-0.3,2.6,1.6,3.8,3.4,4.2C494.4-451.6,494.8-451.6,495.3-451.6z"/>
		<path class="st6" d="M632.4-328.5c0.1-0.2,0.3-0.5,0.4-0.7c2.6-4,6.2-7,9.4-11.2c2.1-3,5.3-5.7,7.8-8.3
			c-5.7,6.5-12.2,12.7-16.5,20.1c1.1-0.1,2.2-0.3,3.1-1.2c1.8-2.2,3.6-4.3,5.4-6.3c-0.2-0.2-0.7-0.7-0.9-0.9
			c6.2-4.8,9.5-11.8,16.1-16.1c-0.1,0.3,0.2,0.4,0.4,0.5c0,0,0,0,0,0c0,0,0,0,0,0c0.2,0.1,0.2,0.2-0.1,0.6c0.3-0.3,0.3-0.5,0.1-0.6
			c-5.6,5.2-10.5,10.5-15.4,16.3c8-8.8,16.5-16.5,25.1-25.1c0.4-0.4,1.1-1.1,1.5-1.5c0.8-2.1,2-3.8,3.5-5.3
			c-1.5-0.8-2.3-4.5-4.8-1.1c-0.2-0.2-0.7-0.7-0.9-0.9c1.8-4.1-0.2-8.3-4.1-6.3c-4.2,2.4-7.7,7.7-12.2,11.3
			c-3.2,2.7-6.3,5.4-8.8,8.8c-3.4,4.7-8,8.9-11.1,13.8c-1.2,1.7-4.5,3.6-4.5,5c-0.2,0.8,0.3,1.3,0.9,1.8c2.3-2.5,4.7-4.9,7-7.4
			c2.7-3.2,5.3-6.4,7.8-9.7c-2.2,3.5-4.9,6.6-7.8,9.7c-2.2,2.6-4.4,5.1-6.5,7.7c0.5,0.4,1.1,0.8,1.4,1.4c0,0-0.7,0.7-1.1,1.1
			c-0.3,2.6,1.6,3.8,3.5,4.2C631.5-328.6,631.9-328.6,632.4-328.5z"/>
		<path class="st6" d="M260.6-691.3c0.1-0.2,0.3-0.5,0.4-0.7c2.6-4,6.2-7,9.4-11.2c2.1-3,5.3-5.7,7.8-8.3
			c-5.7,6.5-12.2,12.7-16.5,20.1c1.1-0.1,2.2-0.3,3.1-1.2c1.8-2.2,3.6-4.3,5.4-6.3c-0.2-0.2-0.7-0.7-0.9-0.9
			c6.2-4.8,9.5-11.8,16.1-16.1c-0.1,0.3,0.2,0.4,0.4,0.5c0,0,0,0,0,0c0,0,0,0,0,0c0.2,0.1,0.2,0.2-0.1,0.6c0.3-0.3,0.3-0.5,0.1-0.6
			c-5.6,5.2-10.5,10.5-15.4,16.3c8-8.8,16.5-16.5,25.1-25.1c0.4-0.4,1.1-1.1,1.5-1.5c0.8-2.1,2-3.8,3.5-5.3
			c-1.5-0.8-2.3-4.5-4.8-1.1c-0.2-0.2-0.7-0.7-0.9-0.9c1.8-4.1-0.2-8.3-4.1-6.3c-4.2,2.4-7.7,7.7-12.2,11.3
			c-3.2,2.7-6.3,5.4-8.8,8.8c-3.4,4.7-8,8.9-11.1,13.8c-1.2,1.7-4.5,3.6-4.5,5c-0.2,0.8,0.3,1.3,0.9,1.8c2.3-2.5,4.7-4.9,7-7.4
			c2.7-3.2,5.3-6.4,7.8-9.7c-2.2,3.5-4.9,6.6-7.8,9.7c-2.2,2.6-4.4,5.1-6.5,7.7c0.5,0.4,1.1,0.8,1.4,1.4c0,0-0.7,0.7-1.1,1.1
			c-0.3,2.6,1.6,3.8,3.4,4.2C259.6-691.4,260.1-691.3,260.6-691.3z"/>
		<path class="st6" d="M492.3-10.6c0.1-0.2,0.3-0.5,0.4-0.7c2.6-4,6.2-7,9.4-11.2c2.1-3,5.3-5.7,7.8-8.3
			c-5.7,6.5-12.2,12.7-16.5,20.1c1.1-0.1,2.2-0.3,3.1-1.2c1.8-2.2,3.6-4.3,5.4-6.3c-0.2-0.2-0.7-0.7-0.9-0.9
			c6.2-4.8,9.5-11.8,16.1-16.1c-0.1,0.3,0.2,0.4,0.4,0.5c0,0,0,0,0,0c0,0,0,0,0,0c0.2,0.1,0.2,0.2-0.1,0.6c0.3-0.3,0.3-0.5,0.1-0.6
			c-5.6,5.2-10.5,10.5-15.4,16.3c8-8.8,16.5-16.5,25.1-25.1c0.4-0.4,1.1-1.1,1.5-1.5c0.8-2.1,2-3.8,3.5-5.3
			c-1.5-0.8-2.3-4.5-4.8-1.1c-0.2-0.2-0.7-0.7-0.9-0.9c1.8-4.1-0.2-8.3-4.1-6.3c-4.2,2.4-7.7,7.7-12.2,11.3
			c-3.2,2.7-6.3,5.4-8.8,8.8c-3.4,4.7-8,8.9-11.1,13.8c-1.2,1.7-4.5,3.6-4.5,5c-0.2,0.8,0.3,1.3,0.9,1.8c2.3-2.5,4.7-4.9,7-7.4
			c2.7-3.2,5.3-6.4,7.8-9.7c-2.2,3.5-4.9,6.6-7.8,9.7c-2.2,2.6-4.4,5.1-6.5,7.7c0.5,0.4,1.1,0.8,1.4,1.4c0,0-0.7,0.7-1.1,1.1
			c-0.3,2.6,1.6,3.8,3.4,4.2C491.3-10.6,491.8-10.6,492.3-10.6z"/>
		<path class="st6" d="M208.4-201.6c0.1-0.2,0.3-0.5,0.4-0.7c2.6-4,6.2-7,9.4-11.2c2.1-3,5.3-5.7,7.8-8.3
			c-5.7,6.5-12.2,12.7-16.5,20.1c1.1-0.1,2.2-0.3,3.1-1.2c1.8-2.2,3.6-4.3,5.4-6.3c-0.2-0.2-0.7-0.7-0.9-0.9
			c6.2-4.8,9.5-11.8,16.1-16.1c-0.1,0.3,0.2,0.4,0.4,0.5c0,0,0,0,0,0c0,0,0,0,0,0c0.2,0.1,0.2,0.2-0.1,0.6c0.3-0.3,0.3-0.5,0.1-0.6
			c-5.6,5.2-10.5,10.5-15.4,16.3c8-8.8,16.5-16.5,25.1-25.1c0.4-0.4,1.1-1.1,1.5-1.5c0.8-2.1,2-3.8,3.5-5.3
			c-1.5-0.8-2.3-4.5-4.8-1.1c-0.2-0.2-0.7-0.7-0.9-0.9c1.8-4.1-0.2-8.3-4.1-6.3c-4.2,2.4-7.7,7.7-12.2,11.3
			c-3.2,2.7-6.3,5.4-8.8,8.8c-3.4,4.7-8,8.9-11.1,13.8c-1.2,1.7-4.5,3.6-4.5,5c-0.2,0.8,0.3,1.3,0.9,1.8c2.3-2.5,4.7-4.9,7-7.4
			c2.7-3.2,5.3-6.4,7.8-9.7c-2.2,3.5-4.9,6.6-7.8,9.7c-2.2,2.6-4.4,5.1-6.5,7.7c0.5,0.4,1.1,0.8,1.4,1.4c0,0-0.7,0.7-1.1,1.1
			c-0.3,2.6,1.6,3.8,3.4,4.2C207.4-201.6,207.9-201.6,208.4-201.6z"/>
		<path class="st6" d="M29.1-328.5c0.1-0.2,0.3-0.5,0.4-0.7c2.6-4,6.2-7,9.4-11.2c2.1-3,5.3-5.7,7.8-8.3
			c-5.7,6.5-12.2,12.7-16.5,20.1c1.1-0.1,2.2-0.3,3.1-1.2c1.8-2.2,3.6-4.3,5.4-6.3c-0.2-0.2-0.7-0.7-0.9-0.9
			c6.2-4.8,9.5-11.8,16.1-16.1c-0.1,0.3,0.2,0.4,0.4,0.5c0,0,0,0,0,0c0,0,0,0,0,0c0.2,0.1,0.2,0.2-0.1,0.6c0.3-0.3,0.3-0.5,0.1-0.6
			c-5.6,5.2-10.5,10.5-15.4,16.3c8-8.8,16.5-16.5,25.1-25.1c0.4-0.4,1.1-1.1,1.5-1.5c0.8-2.1,2-3.8,3.5-5.3
			c-1.5-0.8-2.3-4.5-4.8-1.1c-0.2-0.2-0.7-0.7-0.9-0.9c1.8-4.1-0.2-8.3-4.1-6.3c-4.2,2.4-7.7,7.7-12.2,11.3
			c-3.2,2.7-6.3,5.4-8.8,8.8c-3.4,4.7-8,8.9-11.1,13.8c-1.2,1.7-4.5,3.6-4.5,5c-0.2,0.8,0.3,1.3,0.9,1.8c2.3-2.5,4.7-4.9,7-7.4
			c2.7-3.2,5.3-6.4,7.8-9.7c-2.2,3.5-4.9,6.6-7.8,9.7c-2.2,2.6-4.4,5.1-6.5,7.7c0.5,0.4,1.1,0.8,1.4,1.4c0,0-0.7,0.7-1.1,1.1
			c-0.3,2.6,1.6,3.8,3.5,4.2C28.1-328.6,28.6-328.6,29.1-328.5z"/>
		<path class="st6" d="M7.8-148.2c0.1-0.2,0.3-0.5,0.4-0.7c2.6-4,6.2-7,9.4-11.2c2.1-3,5.3-5.7,7.8-8.3
			c-5.7,6.5-12.2,12.7-16.5,20.1c1.1-0.1,2.2-0.3,3.1-1.2c1.8-2.2,3.6-4.3,5.4-6.3c-0.2-0.2-0.7-0.7-0.9-0.9
			c6.2-4.8,9.5-11.8,16.1-16.1c-0.1,0.3,0.2,0.4,0.4,0.5c0,0,0,0,0,0c0,0,0,0,0,0c0.2,0.1,0.2,0.2-0.1,0.6c0.3-0.3,0.3-0.5,0.1-0.6
			c-5.6,5.2-10.5,10.5-15.4,16.3c8-8.8,16.5-16.5,25.1-25.1c0.4-0.4,1.1-1.1,1.5-1.5c0.8-2.1,2-3.8,3.5-5.3
			c-1.5-0.8-2.3-4.5-4.8-1.1c-0.2-0.2-0.7-0.7-0.9-0.9c1.8-4.1-0.2-8.3-4.1-6.3c-4.2,2.4-7.7,7.7-12.2,11.3
			c-3.2,2.7-6.3,5.4-8.8,8.8c-3.4,4.7-8,8.9-11.1,13.8c-1.2,1.7-4.5,3.6-4.5,5c-0.2,0.8,0.3,1.3,0.9,1.8c2.3-2.5,4.7-4.9,7-7.4
			c2.7-3.2,5.3-6.4,7.8-9.7c-2.2,3.5-4.9,6.6-7.8,9.7c-2.2,2.6-4.4,5.1-6.5,7.7c0.5,0.4,1.1,0.8,1.4,1.4c0,0-0.7,0.7-1.1,1.1
			c-0.3,2.6,1.6,3.8,3.4,4.2C6.8-148.3,7.3-148.2,7.8-148.2z"/>
		<path class="st6" d="M377.5-67.1c0.1-0.2,0.3-0.5,0.4-0.7c2.6-4,6.2-7,9.4-11.2c2.1-3,5.3-5.7,7.8-8.3
			c-5.7,6.5-12.2,12.7-16.5,20.1c1.1-0.1,2.2-0.3,3.1-1.2c1.8-2.2,3.6-4.3,5.4-6.3c-0.2-0.2-0.7-0.7-0.9-0.9
			c6.2-4.8,9.5-11.8,16.1-16.1c-0.1,0.3,0.2,0.4,0.4,0.5c0,0,0,0,0,0c0,0,0,0,0,0c0.2,0.1,0.2,0.2-0.1,0.6c0.3-0.3,0.3-0.5,0.1-0.6
			c-5.6,5.2-10.5,10.5-15.4,16.3c8-8.8,16.5-16.5,25.1-25.1c0.4-0.4,1.1-1.1,1.5-1.5c0.8-2.1,2-3.8,3.5-5.3
			c-1.5-0.8-2.3-4.5-4.8-1.1c-0.2-0.2-0.7-0.7-0.9-0.9c1.8-4.1-0.2-8.3-4.1-6.3c-4.2,2.4-7.7,7.7-12.2,11.3
			c-3.2,2.7-6.3,5.4-8.8,8.8c-3.4,4.7-8,8.9-11.1,13.8c-1.2,1.7-4.5,3.6-4.5,5c-0.2,0.8,0.3,1.3,0.9,1.8c2.3-2.5,4.7-4.9,7-7.4
			c2.7-3.2,5.3-6.4,7.8-9.7c-2.2,3.5-4.9,6.6-7.8,9.7c-2.2,2.6-4.4,5.1-6.5,7.7c0.5,0.4,1.1,0.8,1.4,1.4c0,0-0.7,0.7-1.1,1.1
			c-0.3,2.6,1.6,3.8,3.5,4.2C376.5-67.2,377-67.1,377.5-67.1z"/>
		<path class="st6" d="M538.2-267.7c0.1-0.2,0.3-0.5,0.4-0.7c2.6-4,6.2-7,9.4-11.2c2.1-3,5.3-5.7,7.8-8.3
			c-5.7,6.5-12.2,12.7-16.5,20.1c1.1-0.1,2.2-0.3,3.1-1.2c1.8-2.2,3.6-4.3,5.4-6.3c-0.2-0.2-0.7-0.7-0.9-0.9
			c6.2-4.8,9.5-11.8,16.1-16.1c-0.1,0.3,0.2,0.4,0.4,0.5c0,0,0,0,0,0c0,0,0,0,0,0c0.2,0.1,0.2,0.2-0.1,0.6c0.3-0.3,0.3-0.5,0.1-0.6
			c-5.6,5.2-10.5,10.5-15.4,16.3c8-8.8,16.5-16.5,25.1-25.1c0.4-0.4,1.1-1.1,1.5-1.5c0.8-2.1,2-3.8,3.5-5.3
			c-1.5-0.8-2.3-4.5-4.8-1.1c-0.2-0.2-0.7-0.7-0.9-0.9c1.8-4.1-0.2-8.3-4.1-6.3c-4.2,2.4-7.7,7.7-12.2,11.3
			c-3.2,2.7-6.3,5.4-8.8,8.8c-3.4,4.7-8,8.9-11.1,13.8c-1.2,1.7-4.5,3.6-4.5,5c-0.2,0.8,0.3,1.3,0.9,1.8c2.3-2.5,4.7-4.9,7-7.4
			c2.7-3.2,5.3-6.4,7.8-9.7c-2.2,3.5-4.9,6.6-7.8,9.7c-2.2,2.6-4.4,5.1-6.5,7.7c0.5,0.4,1.1,0.8,1.4,1.4c0,0-0.7,0.7-1.1,1.1
			c-0.3,2.6,1.6,3.8,3.4,4.2C537.2-267.8,537.7-267.8,538.2-267.7z"/>
		<path class="st6" d="M515.5-368.3c0.1-0.2,0.3-0.5,0.4-0.7c2.6-4,6.2-7,9.4-11.2c2.1-3,5.3-5.7,7.8-8.3
			c-5.7,6.5-12.2,12.7-16.5,20.1c1.1-0.1,2.2-0.3,3.1-1.2c1.8-2.2,3.6-4.3,5.4-6.3c-0.2-0.2-0.7-0.7-0.9-0.9
			c6.2-4.8,9.5-11.8,16.1-16.1c-0.1,0.3,0.2,0.4,0.4,0.5c0,0,0,0,0,0c0,0,0,0,0,0c0.2,0.1,0.2,0.2-0.1,0.6c0.3-0.3,0.3-0.5,0.1-0.6
			c-5.6,5.2-10.5,10.5-15.4,16.3c8-8.8,16.5-16.5,25.1-25.1c0.4-0.4,1.1-1.1,1.5-1.5c0.8-2.1,2-3.8,3.5-5.3
			c-1.5-0.8-2.3-4.5-4.8-1.1c-0.2-0.2-0.7-0.7-0.9-0.9c1.8-4.1-0.2-8.3-4.1-6.3c-4.2,2.4-7.7,7.7-12.2,11.3
			c-3.2,2.7-6.3,5.4-8.8,8.8c-3.4,4.7-8,8.9-11.1,13.8c-1.2,1.7-4.5,3.6-4.5,5c-0.2,0.8,0.3,1.3,0.9,1.8c2.3-2.5,4.7-4.9,7-7.4
			c2.7-3.2,5.3-6.4,7.8-9.7c-2.2,3.5-4.9,6.6-7.8,9.7c-2.2,2.6-4.4,5.1-6.5,7.7c0.5,0.4,1.1,0.8,1.4,1.4c0,0-0.7,0.7-1.1,1.1
			c-0.3,2.6,1.6,3.8,3.4,4.2C514.5-368.4,515-368.4,515.5-368.3z"/>
		<path class="st6" d="M701-492.6c0.1-0.2,0.3-0.5,0.4-0.7c2.6-4,6.2-7,9.4-11.2c2.1-3,5.3-5.7,7.8-8.3
			c-5.7,6.5-12.2,12.7-16.5,20.1c1.1-0.1,2.2-0.3,3.1-1.2c1.8-2.2,3.6-4.3,5.4-6.3c-0.2-0.2-0.7-0.7-0.9-0.9
			c6.2-4.8,9.5-11.8,16.1-16.1c-0.1,0.3,0.2,0.4,0.4,0.5c0,0,0,0,0,0c0,0,0,0,0,0c0.2,0.1,0.2,0.2-0.1,0.6c0.3-0.3,0.3-0.5,0.1-0.6
			c-5.6,5.2-10.5,10.5-15.4,16.3c8-8.8,16.5-16.5,25.1-25.1c0.4-0.4,1.1-1.1,1.5-1.5c0.8-2.1,2-3.8,3.5-5.3
			c-1.5-0.8-2.3-4.5-4.8-1.1c-0.2-0.2-0.7-0.7-0.9-0.9c1.8-4.1-0.2-8.3-4.1-6.3c-4.2,2.4-7.7,7.7-12.2,11.3
			c-3.2,2.7-6.3,5.4-8.8,8.8c-3.4,4.7-8,8.9-11.1,13.8c-1.2,1.7-4.5,3.6-4.5,5c-0.2,0.8,0.3,1.3,0.9,1.8c2.3-2.5,4.7-4.9,7-7.4
			c2.7-3.2,5.3-6.4,7.8-9.7c-2.2,3.5-4.9,6.6-7.8,9.7c-2.2,2.6-4.4,5.1-6.5,7.7c0.5,0.4,1.1,0.8,1.4,1.4c0,0-0.7,0.7-1.1,1.1
			c-0.3,2.6,1.6,3.8,3.4,4.2C700.1-492.7,700.5-492.6,701-492.6z"/>
		<path class="st6" d="M646.7-9.7c0.1-0.2,0.3-0.5,0.4-0.7c2.6-4,6.2-7,9.4-11.2c2.1-3,5.3-5.7,7.8-8.3
			c-5.7,6.5-12.2,12.7-16.5,20.1c1.1-0.1,2.2-0.3,3.1-1.2c1.8-2.2,3.6-4.3,5.4-6.3c-0.2-0.2-0.7-0.7-0.9-0.9
			c6.2-4.8,9.5-11.8,16.1-16.1c-0.1,0.3,0.2,0.4,0.4,0.5c0,0,0,0,0,0c0,0,0,0,0,0c0.2,0.1,0.2,0.2-0.1,0.6c0.3-0.3,0.3-0.5,0.1-0.6
			c-5.6,5.2-10.5,10.5-15.4,16.3c8-8.8,16.5-16.5,25.1-25.1c0.4-0.4,1.1-1.1,1.5-1.5c0.8-2.1,2-3.8,3.5-5.3
			c-1.5-0.8-2.3-4.5-4.8-1.1c-0.2-0.2-0.7-0.7-0.9-0.9c1.8-4.1-0.2-8.3-4.1-6.3c-4.2,2.4-7.7,7.7-12.2,11.3
			c-3.2,2.7-6.3,5.4-8.8,8.8c-3.4,4.7-8,8.9-11.1,13.8c-1.2,1.7-4.5,3.6-4.5,5c-0.2,0.8,0.3,1.3,0.9,1.8c2.3-2.5,4.7-4.9,7-7.4
			c2.7-3.2,5.3-6.4,7.8-9.7c-2.2,3.5-4.9,6.6-7.8,9.7c-2.2,2.6-4.4,5.1-6.5,7.7c0.5,0.4,1.1,0.8,1.4,1.4c0,0-0.7,0.7-1.1,1.1
			c-0.3,2.6,1.6,3.8,3.4,4.2C645.7-9.7,646.2-9.7,646.7-9.7z"/>
		<path class="st6" d="M149.9-368.3c0.1-0.2,0.3-0.5,0.4-0.7c2.6-4,6.2-7,9.4-11.2c2.1-3,5.3-5.7,7.8-8.3
			c-5.7,6.5-12.2,12.7-16.5,20.1c1.1-0.1,2.2-0.3,3.1-1.2c1.8-2.2,3.6-4.3,5.4-6.3c-0.2-0.2-0.7-0.7-0.9-0.9
			c6.2-4.8,9.5-11.8,16.1-16.1c-0.1,0.3,0.2,0.4,0.4,0.5c0,0,0,0,0,0c0,0,0,0,0,0c0.2,0.1,0.2,0.2-0.1,0.6c0.3-0.3,0.3-0.5,0.1-0.6
			c-5.6,5.2-10.5,10.5-15.4,16.3c8-8.8,16.5-16.5,25.1-25.1c0.4-0.4,1.1-1.1,1.5-1.5c0.8-2.1,2-3.8,3.5-5.3
			c-1.5-0.8-2.3-4.5-4.8-1.1c-0.2-0.2-0.7-0.7-0.9-0.9c1.8-4.1-0.2-8.3-4.1-6.3c-4.2,2.4-7.7,7.7-12.2,11.3
			c-3.2,2.7-6.3,5.4-8.8,8.8c-3.4,4.7-8,8.9-11.1,13.8c-1.2,1.7-4.5,3.6-4.5,5c-0.2,0.8,0.3,1.3,0.9,1.8c2.3-2.5,4.7-4.9,7-7.4
			c2.7-3.2,5.3-6.4,7.8-9.7c-2.2,3.5-4.9,6.6-7.8,9.7c-2.2,2.6-4.4,5.1-6.5,7.7c0.5,0.4,1.1,0.8,1.4,1.4c0,0-0.7,0.7-1.1,1.1
			c-0.3,2.6,1.6,3.8,3.4,4.2C148.9-368.4,149.4-368.4,149.9-368.3z"/>
		<path class="st6" d="M23.3-433.7c0.1-0.2,0.3-0.5,0.4-0.7c2.6-4,6.2-7,9.4-11.2c2.1-3,5.3-5.7,7.8-8.3
			c-5.7,6.5-12.2,12.7-16.5,20.1c1.1-0.1,2.2-0.3,3.1-1.2c1.8-2.2,3.6-4.3,5.4-6.3c-0.2-0.2-0.7-0.7-0.9-0.9
			c6.2-4.8,9.5-11.8,16.1-16.1c-0.1,0.3,0.2,0.4,0.4,0.5c0,0,0,0,0,0c0,0,0,0,0,0c0.2,0.1,0.2,0.2-0.1,0.6c0.3-0.3,0.3-0.5,0.1-0.6
			c-5.6,5.2-10.5,10.5-15.4,16.3c8-8.8,16.5-16.5,25.1-25.1c0.4-0.4,1.1-1.1,1.5-1.5c0.8-2.1,2-3.8,3.5-5.3
			c-1.5-0.8-2.3-4.5-4.8-1.1c-0.2-0.2-0.7-0.7-0.9-0.9c1.8-4.1-0.2-8.3-4.1-6.3c-4.2,2.4-7.7,7.7-12.2,11.3
			c-3.2,2.7-6.3,5.4-8.8,8.8c-3.4,4.7-8,8.9-11.1,13.8c-1.2,1.7-4.5,3.6-4.5,5c-0.2,0.8,0.3,1.3,0.9,1.8c2.3-2.5,4.7-4.9,7-7.4
			c2.7-3.2,5.3-6.4,7.8-9.7c-2.2,3.5-4.9,6.6-7.8,9.7c-2.2,2.6-4.4,5.1-6.5,7.7c0.5,0.4,1.1,0.8,1.4,1.4c0,0-0.7,0.7-1.1,1.1
			c-0.3,2.6,1.6,3.8,3.4,4.2C22.4-433.7,22.8-433.7,23.3-433.7z"/>
		<path class="st6" d="M677.4-660.4c0.1-0.2,0.3-0.5,0.4-0.7c2.6-4,6.2-7,9.4-11.2c2.1-3,5.3-5.7,7.8-8.3
			c-5.7,6.5-12.2,12.7-16.5,20.1c1.1-0.1,2.2-0.3,3.1-1.2c1.8-2.2,3.6-4.3,5.4-6.3c-0.2-0.2-0.7-0.7-0.9-0.9
			c6.2-4.8,9.5-11.8,16.1-16.1c-0.1,0.3,0.2,0.4,0.4,0.5c0,0,0,0,0,0c0,0,0,0,0,0c0.2,0.1,0.2,0.2-0.1,0.6c0.3-0.3,0.3-0.5,0.1-0.6
			c-5.6,5.2-10.5,10.5-15.4,16.3c8-8.8,16.5-16.5,25.1-25.1c0.4-0.4,1.1-1.1,1.5-1.5c0.8-2.1,2-3.8,3.5-5.3
			c-1.5-0.8-2.3-4.5-4.8-1.1c-0.2-0.2-0.7-0.7-0.9-0.9c1.8-4.1-0.2-8.3-4.1-6.3c-4.2,2.4-7.7,7.7-12.2,11.3
			c-3.2,2.7-6.3,5.4-8.8,8.8c-3.4,4.7-8,8.9-11.1,13.8c-1.2,1.7-4.5,3.6-4.5,5c-0.2,0.8,0.3,1.3,0.9,1.8c2.3-2.5,4.7-4.9,7-7.4
			c2.7-3.2,5.3-6.4,7.8-9.7c-2.2,3.5-4.9,6.6-7.8,9.7c-2.2,2.6-4.4,5.1-6.5,7.7c0.5,0.4,1.1,0.8,1.4,1.4c0,0-0.7,0.7-1.1,1.1
			c-0.3,2.6,1.6,3.8,3.4,4.2C676.5-660.4,677-660.4,677.4-660.4z"/>
	</g>
</pattern>
<rect class="st8" width="2000" height="2000"/>
</svg>
